<?xml version="1.0" encoding="utf-8"?>
<!-- Generator: Adobe Illustrator 23.1.1, SVG Export Plug-In . SVG Version: 6.00 Build 0)  -->
<svg version="1.1" xmlns="http://www.w3.org/2000/svg" xmlns:xlink="http://www.w3.org/1999/xlink" x="0px" y="0px"
	 viewBox="0 0 151 61" style="enable-background:new 0 0 151 61;" xml:space="preserve">
<style type="text/css">
	.st0{display:none;}
	.st1{display:inline;fill:#666666;}
	.st2{display:inline;}
	.st3{fill:#FFFFFF;}
	.st4{fill:url(#SVGID_1_);}
	.st5{opacity:0.74;fill:#FFFFFF;}
	.st6{fill:#5E5E5E;}
	.st7{fill:none;}
	.st8{font-family:'TaipeiSansTCBeta-Bold';}
	.st9{font-size:20.9649px;}
</style>
<g id="背景" class="st0">
	<rect x="-585.98" y="9" class="st1" width="748.17" height="1155.9"/>
</g>
<g id="banner_x5F_圖" class="st0">
</g>
<g id="副標" class="st0">
</g>
<g id="banner_x5F_頂" class="st0">
	<g class="st2">
		<linearGradient id="SVGID_1_" gradientUnits="userSpaceOnUse" x1="-210.7598" y1="75.825" x2="-210.7598" y2="-168.7652">
			<stop  offset="0" style="stop-color:#FFFFFF"/>
			<stop  offset="1" style="stop-color:#CACBCB"/>
		</linearGradient>
		<path class="st4" d="M102.34,75.82h-626.21c-34.05,0-61.66-27.6-61.66-61.66v-182.93H164V14.17
			C164,48.22,136.4,75.82,102.34,75.82z"/>
	</g>
</g>
<g id="button" class="st0">
</g>
<g id="返回">
	<g>
		<path class="st6" d="M109.43,31.44l-4.3-2.48v2.9h-0.35h-2.52h-0.22h-0.02h-0.11c-1-0.06-1.79-0.87-1.82-1.87v-2.82v-4.25h-4.24
			v8.71c0,0.08,0,0.15,0.01,0.23c0.12,2.36,2.07,4.24,4.47,4.24h4.82v2.79l4.3-2.48l4.3-2.48L109.43,31.44z"/>
		<rect x="43.63" y="17.5" class="st7" width="52.42" height="26.38"/>
		<text transform="matrix(1 0 0 1 43.6299 35.9429)" class="st6 st8 st9">back</text>
	</g>
</g>
<g id="標題" class="st0">
</g>
</svg>
