<?xml version="1.0" encoding="utf-8"?>
<!-- Generator: Adobe Illustrator 23.1.1, SVG Export Plug-In . SVG Version: 6.00 Build 0)  -->
<svg version="1.1" id="圖層_1" xmlns="http://www.w3.org/2000/svg" xmlns:xlink="http://www.w3.org/1999/xlink" x="0px" y="0px"
	 viewBox="0 0 657 112" style="enable-background:new 0 0 657 112;" xml:space="preserve">
<style type="text/css">
	.st0{fill:#CBCBCB;}
	.st1{opacity:0.27;}
	.st2{opacity:0;fill:#F5F5F5;}
	.st3{opacity:0.0476;fill:#F5F5F5;}
	.st4{opacity:0.0952;fill:#F5F5F5;}
	.st5{opacity:0.1429;fill:#F5F5F5;}
	.st6{opacity:0.1905;fill:#F5F5F5;}
	.st7{opacity:0.2381;fill:#F5F5F5;}
	.st8{opacity:0.2857;fill:#F5F5F5;}
	.st9{opacity:0.3333;fill:#F5F5F5;}
	.st10{opacity:0.381;fill:#F5F5F5;}
	.st11{opacity:0.4286;fill:#F5F5F5;}
	.st12{opacity:0.4762;fill:#F5F5F5;}
	.st13{opacity:0.5238;fill:#F5F5F5;}
	.st14{opacity:0.5714;fill:#F5F5F5;}
	.st15{opacity:0.619;fill:#F5F5F5;}
	.st16{opacity:0.6667;fill:#F5F5F5;}
	.st17{opacity:0.7143;fill:#F5F5F5;}
	.st18{opacity:0.7619;fill:#F5F5F5;}
	.st19{opacity:0.8095;fill:#F5F5F5;}
	.st20{opacity:0.8571;fill:#F5F5F5;}
	.st21{opacity:0.9048;fill:#F5F5F5;}
	.st22{opacity:0.9524;fill:#F5F5F5;}
	.st23{fill:#F5F5F5;}
	.st24{opacity:0.37;}
	.st25{opacity:0;fill:#ECECEB;}
	.st26{opacity:0.0476;fill:#EDEDEC;}
	.st27{opacity:0.0952;fill:#EEEEED;}
	.st28{opacity:0.1429;fill:#EFEFEE;}
	.st29{opacity:0.1905;fill:#F0F0EF;}
	.st30{opacity:0.2381;fill:#F1F1F0;}
	.st31{opacity:0.2857;fill:#F1F1F1;}
	.st32{opacity:0.3333;fill:#F2F2F2;}
	.st33{opacity:0.381;fill:#F3F3F3;}
	.st34{opacity:0.4286;fill:#F4F4F4;}
	.st35{opacity:0.5238;fill:#F6F6F5;}
	.st36{opacity:0.5714;fill:#F7F7F6;}
	.st37{opacity:0.619;fill:#F8F8F7;}
	.st38{opacity:0.6667;fill:#F9F9F8;}
	.st39{opacity:0.7143;fill:#FAFAF9;}
	.st40{opacity:0.7619;fill:#FAFAFA;}
	.st41{opacity:0.8095;fill:#FBFBFB;}
	.st42{opacity:0.8571;fill:#FCFCFC;}
	.st43{opacity:0.9048;fill:#FDFDFD;}
	.st44{opacity:0.9524;fill:#FEFEFE;}
	.st45{fill:#FFFFFF;}
	.st46{opacity:0.3;}
	.st47{opacity:0;fill:#EFEFEF;}
	.st48{opacity:0.0476;fill:#EFEFEF;}
	.st49{opacity:0.0952;fill:#EFEFEF;}
	.st50{opacity:0.1429;fill:#EFEFEF;}
	.st51{opacity:0.1905;fill:#EFEFEF;}
	.st52{opacity:0.2381;fill:#EFEFEF;}
	.st53{opacity:0.2857;fill:#EFEFEF;}
	.st54{opacity:0.3333;fill:#EFEFEF;}
	.st55{opacity:0.381;fill:#EFEFEF;}
	.st56{opacity:0.4286;fill:#EFEFEF;}
	.st57{opacity:0.4762;fill:#EFEFEF;}
	.st58{opacity:0.5238;fill:#EFEFEF;}
	.st59{opacity:0.5714;fill:#EFEFEF;}
	.st60{opacity:0.619;fill:#EFEFEF;}
	.st61{opacity:0.6667;fill:#EFEFEF;}
	.st62{opacity:0.7143;fill:#EFEFEF;}
	.st63{opacity:0.7619;fill:#EFEFEF;}
	.st64{opacity:0.8095;fill:#EFEFEF;}
	.st65{opacity:0.8571;fill:#EFEFEF;}
	.st66{opacity:0.9048;fill:#EFEFEF;}
	.st67{opacity:0.9524;fill:#EFEFEF;}
	.st68{fill:#EFEFEF;}
	.st69{opacity:0.34;}
	.st70{opacity:0.15;}
	.st71{opacity:0.14;}
	.st72{opacity:0.23;}
	.st73{opacity:0.61;}
	.st74{fill:#F1F1F1;}
	.st75{fill:#F4F4F4;}
	.st76{fill:url(#SVGID_1_);}
	.st77{opacity:0.26;fill:#FFFFFF;}
	.st78{opacity:0.59;}
	.st79{opacity:0;fill:#F4F4F4;}
	.st80{opacity:0.0625;fill:#F4F4F4;}
	.st81{opacity:0.125;fill:#F4F4F4;}
	.st82{opacity:0.1875;fill:#F5F5F5;}
	.st83{opacity:0.25;fill:#F5F5F5;}
	.st84{opacity:0.3125;fill:#F5F5F5;}
	.st85{opacity:0.375;fill:#F5F5F5;}
	.st86{opacity:0.4375;fill:#F5F5F5;}
	.st87{opacity:0.5;fill:#F6F6F6;}
	.st88{opacity:0.5625;fill:#F6F6F6;}
	.st89{opacity:0.625;fill:#F6F6F6;}
	.st90{opacity:0.6875;fill:#F6F6F6;}
	.st91{opacity:0.75;fill:#F6F6F6;}
	.st92{opacity:0.8125;fill:#F6F6F6;}
	.st93{opacity:0.875;fill:#F7F7F7;}
	.st94{opacity:0.9375;fill:#F7F7F7;}
	.st95{fill:#F7F7F7;}
	.st96{fill:#7A7A7A;}
	.st97{fill:url(#SVGID_2_);}
	.st98{fill:url(#SVGID_3_);}
	.st99{fill:url(#SVGID_4_);}
	.st100{fill:url(#SVGID_5_);}
	.st101{fill:url(#SVGID_6_);}
	.st102{clip-path:url(#SVGID_8_);fill:url(#SVGID_9_);}
	.st103{clip-path:url(#SVGID_11_);fill:url(#SVGID_12_);}
	.st104{clip-path:url(#SVGID_14_);fill:url(#SVGID_15_);}
	.st105{clip-path:url(#SVGID_17_);fill:url(#SVGID_18_);}
	.st106{clip-path:url(#SVGID_20_);fill:url(#SVGID_21_);}
	.st107{clip-path:url(#SVGID_23_);fill:url(#SVGID_24_);}
	.st108{filter:url(#Adobe_OpacityMaskFilter);}
	.st109{mask:url(#SVGID_25_);}
	.st110{filter:url(#Adobe_OpacityMaskFilter_1_);}
	.st111{mask:url(#SVGID_26_);}
	.st112{filter:url(#Adobe_OpacityMaskFilter_2_);}
	.st113{mask:url(#SVGID_27_);}
	.st114{filter:url(#Adobe_OpacityMaskFilter_3_);}
	.st115{mask:url(#SVGID_28_);}
	.st116{filter:url(#Adobe_OpacityMaskFilter_4_);}
	.st117{mask:url(#SVGID_29_);}
	.st118{filter:url(#Adobe_OpacityMaskFilter_5_);}
	.st119{mask:url(#SVGID_30_);}
	.st120{filter:url(#Adobe_OpacityMaskFilter_6_);}
	.st121{filter:url(#Adobe_OpacityMaskFilter_7_);}
	.st122{mask:url(#SVGID_31_);}
	.st123{filter:url(#Adobe_OpacityMaskFilter_8_);}
	.st124{mask:url(#SVGID_32_);}
	.st125{filter:url(#Adobe_OpacityMaskFilter_9_);}
	.st126{mask:url(#SVGID_33_);}
	.st127{filter:url(#Adobe_OpacityMaskFilter_10_);}
	.st128{mask:url(#SVGID_34_);}
	.st129{filter:url(#Adobe_OpacityMaskFilter_11_);}
	.st130{mask:url(#SVGID_35_);}
	.st131{filter:url(#Adobe_OpacityMaskFilter_12_);}
	.st132{mask:url(#SVGID_36_);}
	.st133{filter:url(#Adobe_OpacityMaskFilter_13_);}
	.st134{mask:url(#SVGID_37_);}
	.st135{filter:url(#Adobe_OpacityMaskFilter_14_);}
	.st136{mask:url(#SVGID_38_);}
	.st137{filter:url(#Adobe_OpacityMaskFilter_15_);}
	.st138{mask:url(#SVGID_39_);}
	.st139{filter:url(#Adobe_OpacityMaskFilter_16_);}
	.st140{mask:url(#SVGID_40_);}
	.st141{filter:url(#Adobe_OpacityMaskFilter_17_);}
	.st142{mask:url(#SVGID_41_);}
	.st143{filter:url(#Adobe_OpacityMaskFilter_18_);}
	.st144{mask:url(#SVGID_42_);}
	.st145{opacity:0.83;fill:url(#SVGID_43_);}
	.st146{fill:url(#SVGID_44_);}
	.st147{fill:url(#SVGID_45_);}
	.st148{fill:url(#SVGID_46_);}
	.st149{opacity:0.83;fill:url(#SVGID_47_);}
	.st150{fill:url(#SVGID_48_);}
	.st151{filter:url(#Adobe_OpacityMaskFilter_19_);}
	.st152{mask:url(#SVGID_49_);}
	.st153{filter:url(#Adobe_OpacityMaskFilter_20_);}
	.st154{mask:url(#SVGID_50_);}
	.st155{filter:url(#Adobe_OpacityMaskFilter_21_);}
	.st156{mask:url(#SVGID_51_);}
	.st157{filter:url(#Adobe_OpacityMaskFilter_22_);}
	.st158{mask:url(#SVGID_52_);}
	.st159{filter:url(#Adobe_OpacityMaskFilter_23_);}
	.st160{mask:url(#SVGID_53_);}
	.st161{filter:url(#Adobe_OpacityMaskFilter_24_);}
	.st162{mask:url(#SVGID_54_);}
	.st163{filter:url(#Adobe_OpacityMaskFilter_25_);}
	.st164{filter:url(#Adobe_OpacityMaskFilter_26_);}
	.st165{mask:url(#SVGID_55_);}
	.st166{filter:url(#Adobe_OpacityMaskFilter_27_);}
	.st167{mask:url(#SVGID_56_);}
	.st168{filter:url(#Adobe_OpacityMaskFilter_28_);}
	.st169{mask:url(#SVGID_57_);}
	.st170{filter:url(#Adobe_OpacityMaskFilter_29_);}
	.st171{mask:url(#SVGID_58_);}
	.st172{filter:url(#Adobe_OpacityMaskFilter_30_);}
	.st173{mask:url(#SVGID_59_);}
	.st174{filter:url(#Adobe_OpacityMaskFilter_31_);}
	.st175{mask:url(#SVGID_60_);}
	.st176{filter:url(#Adobe_OpacityMaskFilter_32_);}
	.st177{mask:url(#SVGID_61_);}
	.st178{filter:url(#Adobe_OpacityMaskFilter_33_);}
	.st179{mask:url(#SVGID_62_);}
	.st180{filter:url(#Adobe_OpacityMaskFilter_34_);}
	.st181{mask:url(#SVGID_63_);}
	.st182{filter:url(#Adobe_OpacityMaskFilter_35_);}
	.st183{mask:url(#SVGID_64_);}
	.st184{opacity:0.83;fill:url(#SVGID_65_);}
	.st185{fill:url(#SVGID_66_);}
	.st186{filter:url(#Adobe_OpacityMaskFilter_36_);}
	.st187{mask:url(#SVGID_67_);}
	.st188{filter:url(#Adobe_OpacityMaskFilter_37_);}
	.st189{mask:url(#SVGID_68_);}
	.st190{filter:url(#Adobe_OpacityMaskFilter_38_);}
	.st191{mask:url(#SVGID_69_);}
	.st192{filter:url(#Adobe_OpacityMaskFilter_39_);}
	.st193{mask:url(#SVGID_70_);}
	.st194{filter:url(#Adobe_OpacityMaskFilter_40_);}
	.st195{mask:url(#SVGID_71_);}
	.st196{filter:url(#Adobe_OpacityMaskFilter_41_);}
	.st197{mask:url(#SVGID_72_);}
	.st198{filter:url(#Adobe_OpacityMaskFilter_42_);}
	.st199{filter:url(#Adobe_OpacityMaskFilter_43_);}
	.st200{mask:url(#SVGID_73_);}
	.st201{filter:url(#Adobe_OpacityMaskFilter_44_);}
	.st202{mask:url(#SVGID_74_);}
	.st203{filter:url(#Adobe_OpacityMaskFilter_45_);}
	.st204{mask:url(#SVGID_75_);}
	.st205{filter:url(#Adobe_OpacityMaskFilter_46_);}
	.st206{mask:url(#SVGID_76_);}
	.st207{filter:url(#Adobe_OpacityMaskFilter_47_);}
	.st208{mask:url(#SVGID_77_);}
	.st209{filter:url(#Adobe_OpacityMaskFilter_48_);}
	.st210{mask:url(#SVGID_78_);}
	.st211{filter:url(#Adobe_OpacityMaskFilter_49_);}
	.st212{mask:url(#SVGID_79_);}
	.st213{filter:url(#Adobe_OpacityMaskFilter_50_);}
	.st214{mask:url(#SVGID_80_);}
	.st215{filter:url(#Adobe_OpacityMaskFilter_51_);}
	.st216{mask:url(#SVGID_81_);}
	.st217{filter:url(#Adobe_OpacityMaskFilter_52_);}
	.st218{mask:url(#SVGID_82_);}
	.st219{fill:url(#SVGID_83_);}
	.st220{filter:url(#Adobe_OpacityMaskFilter_53_);}
	.st221{mask:url(#SVGID_84_);}
	.st222{filter:url(#Adobe_OpacityMaskFilter_54_);}
	.st223{mask:url(#SVGID_85_);}
	.st224{fill:url(#SVGID_86_);}
	.st225{filter:url(#Adobe_OpacityMaskFilter_55_);}
	.st226{mask:url(#SVGID_87_);}
	.st227{filter:url(#Adobe_OpacityMaskFilter_56_);}
	.st228{mask:url(#SVGID_88_);}
	.st229{fill:url(#SVGID_89_);}
	.st230{fill:url(#SVGID_90_);}
	.st231{fill:url(#SVGID_91_);}
	.st232{fill:url(#SVGID_92_);}
	.st233{filter:url(#Adobe_OpacityMaskFilter_57_);}
	.st234{mask:url(#SVGID_93_);}
	.st235{filter:url(#Adobe_OpacityMaskFilter_58_);}
	.st236{mask:url(#SVGID_94_);}
	.st237{clip-path:url(#SVGID_96_);fill:url(#SVGID_97_);}
	.st238{clip-path:url(#SVGID_99_);fill:url(#SVGID_100_);}
	.st239{clip-path:url(#SVGID_102_);fill:url(#SVGID_103_);}
	.st240{opacity:0.83;fill:url(#SVGID_104_);}
	.st241{fill:url(#SVGID_105_);}
	.st242{fill:url(#SVGID_106_);}
	.st243{fill:url(#SVGID_107_);}
</style>
<g>
	
		<rect x="296.44" y="-243.32" transform="matrix(6.123234e-17 -1 1 6.123234e-17 271.824 391.3754)" class="st77" width="70.32" height="606.18"/>
	<g>
		<g>
			<g>
				<path class="st96" d="M297.67,39.02c-1.29,0.17-1.69,0.44-1.75,1.4c-0.06,0.82-0.13,1.54-0.13,3.38v8.41h-1.18l-8.81-10.57v4.78
					c0,1.84,0.04,2.66,0.11,3.28c0.08,0.93,0.53,1.42,2.09,1.5v0.78h-5.24V51.2c1.2-0.11,1.73-0.42,1.86-1.42
					c0.08-0.76,0.13-1.52,0.13-3.36v-5.01c0-0.7-0.04-1.16-0.44-1.71c-0.38-0.53-0.89-0.59-1.77-0.68v-0.78h4.12l8.05,9.36v-3.8
					c0-1.84-0.02-2.54-0.08-3.32c-0.06-0.91-0.4-1.35-2.16-1.46v-0.78h5.22V39.02z"/>
				<path class="st96" d="M313.14,39.02c-1.35,0.13-1.71,0.53-1.8,1.29c-0.06,0.63-0.11,1.35-0.11,2.83v2.77
					c0,1.82-0.3,3.66-1.5,4.92c-0.97,1.01-2.47,1.46-3.97,1.46c-1.4,0-2.79-0.3-3.78-1.1c-1.23-0.93-1.82-2.22-1.82-4.59v-5.35
					c0-1.94-0.19-2.09-1.8-2.24v-0.78h6.53v0.78c-1.59,0.15-1.78,0.3-1.78,2.24v5.62c0,2.37,1.16,3.93,3.42,3.93
					c2.52,0,3.61-1.86,3.61-5.03v-2.64c0-1.46-0.06-2.22-0.11-2.85c-0.08-0.97-0.68-1.18-2.16-1.27v-0.78h5.24V39.02z"/>
				<path class="st96" d="M325.67,41.9c-0.23-0.97-0.7-1.77-0.91-2.07c-0.38-0.44-0.55-0.61-1.8-0.61h-1.35v9.93
					c0,1.78,0.21,1.9,2.09,2.05v0.78h-7.02V51.2c1.8-0.15,1.99-0.27,1.99-2.05v-9.93h-1.29c-1.18,0-1.52,0.19-1.92,0.7
					c-0.3,0.4-0.59,1.16-0.87,2.01h-0.8c0.15-1.54,0.3-3.19,0.34-4.21h0.63c0.32,0.49,0.57,0.53,1.2,0.53h8.45
					c0.57,0,0.87-0.13,1.23-0.53h0.61c0.02,0.89,0.11,2.75,0.21,4.12L325.67,41.9z"/>
				<path class="st96" d="M342.57,39.02c-1.29,0.17-1.69,0.44-1.75,1.4c-0.06,0.82-0.13,1.54-0.13,3.38v8.41h-1.18l-8.81-10.57v4.78
					c0,1.84,0.04,2.66,0.11,3.28c0.08,0.93,0.53,1.42,2.09,1.5v0.78h-5.24V51.2c1.2-0.11,1.73-0.42,1.86-1.42
					c0.08-0.76,0.13-1.52,0.13-3.36v-5.01c0-0.7-0.04-1.16-0.44-1.71c-0.38-0.53-0.89-0.59-1.77-0.68v-0.78h4.12l8.05,9.36v-3.8
					c0-1.84-0.02-2.54-0.08-3.32c-0.06-0.91-0.4-1.35-2.16-1.46v-0.78h5.22V39.02z"/>
				<path class="st96" d="M354.85,38.24c2.71,0,4.69,0.57,6.04,1.84c1.08,0.99,1.9,2.47,1.9,4.61c0,2.43-1.01,4.29-2.64,5.52
					c-1.56,1.18-3.57,1.78-5.98,1.78h-5.81V51.2c1.61-0.13,1.8-0.32,1.8-2.07v-8.03c0-1.78-0.23-1.94-1.8-2.07v-0.78H354.85z
					 M353.09,48.98c0,1.5,0.38,2.01,1.92,2.01c2.85,0,4.5-1.99,4.5-5.98c0-2.01-0.55-3.76-1.52-4.67c-0.89-0.89-1.99-1.18-3.4-1.18
					c-0.78,0-1.14,0.17-1.27,0.3c-0.19,0.19-0.23,0.55-0.23,1.16V48.98z"/>
				<path class="st96" d="M376.12,48.39c-0.11,0.57-0.7,3-0.89,3.59h-10.97v-0.76c1.92-0.19,2.05-0.3,2.05-2.07v-8.07
					c0-1.8-0.25-1.92-1.69-2.05v-0.78h6.87c2.22,0,2.96-0.02,3.25-0.04c0.02,0.38,0.13,2.11,0.21,3.42l-0.82,0.11
					c-0.19-0.72-0.55-1.58-0.91-1.96c-0.38-0.42-0.66-0.55-1.73-0.55h-1.37c-0.8,0-0.89,0.04-0.89,0.76v4.42h2.07
					c1.18,0,1.39-0.32,1.71-1.82h0.82v4.71h-0.82c-0.34-1.56-0.51-1.82-1.73-1.82h-2.05v3.63c0,1.46,0.04,1.9,1.35,1.92h1.5
					c1.18,0,1.5-0.15,1.97-0.72c0.53-0.61,0.95-1.39,1.29-2.11L376.12,48.39z"/>
				<path class="st96" d="M383.37,38.24c1.67,0,2.94,0.3,3.8,0.87c1.06,0.7,1.65,1.71,1.65,3.17c0,3.06-2.6,4.35-4.86,4.38
					c-0.21,0-0.49-0.02-0.63-0.04l-1.23-0.32v2.87c0,1.78,0.15,1.86,1.99,2.03v0.78h-6.72V51.2c1.58-0.19,1.8-0.25,1.8-2.03v-8.07
					c0-1.78-0.21-1.97-1.8-2.07v-0.78H383.37z M382.1,45.41c0.25,0.13,0.68,0.21,1.12,0.21c0.97,0,2.56-0.57,2.56-3.36
					c0-2.37-1.29-3.15-2.66-3.15c-0.44,0-0.7,0.11-0.82,0.21c-0.15,0.13-0.19,0.34-0.19,0.66V45.41z"/>
				<path class="st96" d="M397.02,51.98V51.2c1.33-0.19,1.33-0.42,1.04-1.33c-0.21-0.63-0.55-1.58-0.87-2.43h-4.12
					c-0.23,0.66-0.53,1.46-0.74,2.11c-0.44,1.33,0.06,1.5,1.73,1.65v0.78h-5.22V51.2c1.33-0.17,1.67-0.36,2.39-2.13l4.4-10.93
					l1.01-0.19c1.35,3.68,2.79,7.44,4.16,10.97c0.78,1.97,0.97,2.11,2.35,2.28v0.78H397.02z M395.16,41.88
					c-0.61,1.52-1.2,2.94-1.73,4.48h3.36L395.16,41.88z"/>
				<path class="st96" d="M416.67,52.11c-0.13,0-0.38,0-0.63-0.02c-2.68-0.13-3.47-0.7-4.1-1.58c-0.85-1.16-1.46-2.45-2.18-3.72
					c-0.32-0.57-0.61-0.7-1.29-0.7l-0.42-0.02v3.08c0,1.71,0.21,1.86,1.8,2.05v0.78h-6.47V51.2c1.61-0.17,1.8-0.34,1.8-2.05v-8.09
					c0-1.67-0.21-1.9-1.8-2.03v-0.78h6.13c1.88,0,2.96,0.21,3.83,0.8c0.85,0.57,1.42,1.5,1.42,2.81c0,1.88-1.25,2.87-2.64,3.42
					c0.32,0.63,1.14,2.01,1.78,2.98c0.74,1.16,1.2,1.73,1.61,2.2c0.49,0.55,0.72,0.72,1.33,0.93L416.67,52.11z M408.62,45.19
					c0.91,0,1.61-0.15,2.07-0.55c0.7-0.59,0.99-1.4,0.99-2.47c0-2.24-1.29-3.04-2.47-3.04c-0.57,0-0.85,0.08-0.97,0.21
					c-0.15,0.13-0.19,0.38-0.19,0.8v5.05H408.62z"/>
				<path class="st96" d="M428.73,41.9c-0.23-0.97-0.7-1.77-0.91-2.07c-0.38-0.44-0.55-0.61-1.8-0.61h-1.35v9.93
					c0,1.78,0.21,1.9,2.09,2.05v0.78h-7.02V51.2c1.8-0.15,1.99-0.27,1.99-2.05v-9.93h-1.29c-1.18,0-1.52,0.19-1.92,0.7
					c-0.3,0.4-0.59,1.16-0.87,2.01h-0.8c0.15-1.54,0.3-3.19,0.34-4.21h0.63c0.32,0.49,0.57,0.53,1.2,0.53h8.45
					c0.57,0,0.87-0.13,1.23-0.53h0.61c0.02,0.89,0.11,2.75,0.21,4.12L428.73,41.9z"/>
				<path class="st96" d="M441.98,51.98V51.2c1.61-0.17,1.71-0.32,1.71-2.22l-0.02-8.24c-1.52,3.63-3.19,7.65-4.71,11.24h-0.7
					c-1.37-3.44-2.87-7.38-4.4-11.07c-0.27,6.64-0.27,7.95-0.27,8.71c0.02,1.14,0.44,1.44,2.03,1.58v0.78h-5.24V51.2
					c1.2-0.11,1.75-0.34,1.92-1.61c0.08-0.63,0.17-1.84,0.66-8.81c0.06-1.01-0.08-1.58-1.9-1.75v-0.78h4.56l4.08,9.32l4.1-9.32h4.46
					v0.78c-1.69,0.17-1.88,0.34-1.84,2.03l0.17,7.92c0.02,1.9,0.11,1.99,1.82,2.22v0.78H441.98z"/>
				<path class="st96" d="M461.57,48.39c-0.11,0.57-0.7,3-0.89,3.59h-10.97v-0.76c1.92-0.19,2.05-0.3,2.05-2.07v-8.07
					c0-1.8-0.25-1.92-1.69-2.05v-0.78h6.87c2.22,0,2.96-0.02,3.25-0.04c0.02,0.38,0.13,2.11,0.21,3.42l-0.82,0.11
					c-0.19-0.72-0.55-1.58-0.91-1.96c-0.38-0.42-0.66-0.55-1.73-0.55h-1.37c-0.8,0-0.89,0.04-0.89,0.76v4.42h2.07
					c1.18,0,1.39-0.32,1.71-1.82h0.82v4.71h-0.82c-0.34-1.56-0.51-1.82-1.73-1.82h-2.05v3.63c0,1.46,0.04,1.9,1.35,1.92h1.5
					c1.18,0,1.5-0.15,1.97-0.72c0.53-0.61,0.95-1.39,1.29-2.11L461.57,48.39z"/>
				<path class="st96" d="M477.54,39.02c-1.29,0.17-1.69,0.44-1.75,1.4c-0.06,0.82-0.13,1.54-0.13,3.38v8.41h-1.18l-8.81-10.57v4.78
					c0,1.84,0.04,2.66,0.11,3.28c0.08,0.93,0.53,1.42,2.09,1.5v0.78h-5.24V51.2c1.2-0.11,1.73-0.42,1.86-1.42
					c0.08-0.76,0.13-1.52,0.13-3.36v-5.01c0-0.7-0.04-1.16-0.44-1.71c-0.38-0.53-0.89-0.59-1.77-0.68v-0.78h4.12l8.05,9.36v-3.8
					c0-1.84-0.02-2.54-0.08-3.32c-0.06-0.91-0.4-1.35-2.16-1.46v-0.78h5.22V39.02z"/>
				<path class="st96" d="M490.24,41.9c-0.23-0.97-0.7-1.77-0.91-2.07c-0.38-0.44-0.55-0.61-1.8-0.61h-1.35v9.93
					c0,1.78,0.21,1.9,2.09,2.05v0.78h-7.02V51.2c1.8-0.15,1.99-0.27,1.99-2.05v-9.93h-1.29c-1.18,0-1.52,0.19-1.92,0.7
					c-0.3,0.4-0.59,1.16-0.87,2.01h-0.8c0.15-1.54,0.3-3.19,0.34-4.21h0.63c0.32,0.49,0.57,0.53,1.2,0.53h8.45
					c0.57,0,0.87-0.13,1.23-0.53h0.61c0.02,0.89,0.11,2.75,0.21,4.12L490.24,41.9z"/>
				<path class="st96" d="M290.38,63.3c3.91,0,7.1,2.85,7.1,7.02c0,4.5-3.21,7.33-7.21,7.33c-4.23,0-7.29-3.09-7.29-7.17
					C282.99,66.87,285.56,63.3,290.38,63.3z M290.06,64.23c-2.16,0-3.74,2.11-3.74,5.85c0,3.57,1.42,6.64,4.27,6.64
					c2.01,0,3.57-1.94,3.57-5.81C294.17,66.72,292.52,64.23,290.06,64.23z"/>
				<path class="st96" d="M309,67.1c-0.23-0.8-0.57-1.58-0.93-1.99c-0.44-0.46-0.72-0.55-1.73-0.55h-1.58c-0.72,0-0.8,0.04-0.8,0.76
					v4.61h2.26c1.25,0,1.42-0.32,1.73-1.8h0.78v4.69h-0.8c-0.23-1.44-0.55-1.8-1.71-1.8h-2.26v3.3c0,1.94,0.13,2.09,2.03,2.22v0.78
					h-6.76v-0.78c1.61-0.15,1.8-0.27,1.8-2.22v-7.78c0-1.88-0.19-2.05-1.8-2.18V63.6h7.16c1.82,0,2.87-0.02,3.21-0.04
					c0.02,0.36,0.13,2.18,0.23,3.42L309,67.1z"/>
				<path class="st96" d="M329.26,64.38c-1.4,0.15-1.82,0.34-2.62,2.35c-0.66,1.63-2.83,6.87-4.4,10.84h-1.16
					c-0.59-1.65-3.34-8.9-4.23-11.14c-0.66-1.58-0.93-1.92-2.3-2.05V63.6H321l-0.02,0.78c-1.54,0.21-1.54,0.36-1.2,1.25
					c0.66,1.78,2.24,6.13,2.96,7.99c1.27-3.02,2.41-5.9,2.9-7.27c0.53-1.46,0.38-1.78-1.39-1.97V63.6h5.03V64.38z"/>
				<path class="st96" d="M329.23,77.33v-0.78c1.61-0.15,1.8-0.27,1.8-2.05v-8.05c0-1.78-0.21-1.94-1.8-2.07V63.6h6.53v0.78
					c-1.58,0.15-1.8,0.3-1.8,2.07v8.05c0,1.75,0.19,1.88,1.8,2.05v0.78H329.23z"/>
				<path class="st96" d="M345.36,67.08c-0.42-1.35-1.01-2.89-2.96-2.89c-1.23,0-2.03,0.87-2.03,2.05c0,1.16,0.78,1.86,2.64,2.79
					c2.26,1.12,3.7,2.22,3.7,4.31c0,2.49-2.07,4.31-5.09,4.31c-1.35,0-2.56-0.36-3.55-0.66c-0.13-0.49-0.49-2.68-0.63-3.68
					l0.82-0.19c0.42,1.33,1.61,3.63,3.68,3.63c1.29,0,2.07-0.8,2.07-2.16c0-1.23-0.76-1.94-2.54-2.89c-2.2-1.18-3.64-2.24-3.64-4.44
					c0-2.22,1.73-3.97,4.9-3.97c1.46,0,2.56,0.32,3.02,0.38c0.08,0.78,0.23,1.88,0.4,3.21L345.36,67.08z"/>
				<path class="st96" d="M362.73,64.38c-1.35,0.13-1.71,0.53-1.8,1.29c-0.06,0.63-0.11,1.35-0.11,2.83v2.77
					c0,1.82-0.3,3.66-1.5,4.92c-0.97,1.01-2.47,1.46-3.97,1.46c-1.4,0-2.79-0.3-3.78-1.1c-1.23-0.93-1.82-2.22-1.82-4.59v-5.35
					c0-1.94-0.19-2.09-1.8-2.24V63.6h6.53v0.78c-1.59,0.15-1.78,0.3-1.78,2.24v5.62c0,2.37,1.16,3.93,3.42,3.93
					c2.52,0,3.61-1.86,3.61-5.03V68.5c0-1.46-0.06-2.22-0.11-2.85c-0.08-0.97-0.68-1.18-2.16-1.27V63.6h5.24V64.38z"/>
				<path class="st96" d="M370.37,77.33v-0.78c1.33-0.19,1.33-0.42,1.04-1.33c-0.21-0.63-0.55-1.58-0.87-2.43h-4.12
					c-0.23,0.66-0.53,1.46-0.74,2.11c-0.44,1.33,0.06,1.5,1.73,1.65v0.78h-5.22v-0.78c1.33-0.17,1.67-0.36,2.39-2.13l4.4-10.93
					l1.01-0.19c1.35,3.68,2.79,7.44,4.16,10.97c0.78,1.97,0.97,2.11,2.35,2.28v0.78H370.37z M368.51,67.23
					c-0.61,1.52-1.2,2.94-1.73,4.48h3.36L368.51,67.23z"/>
				<path class="st96" d="M387.93,73.61c-0.17,0.91-0.76,3.15-0.95,3.72H376.5v-0.78c1.86-0.13,2.03-0.27,2.03-2.05v-8.05
					c0-1.78-0.21-1.94-1.8-2.07V63.6h6.59v0.78c-1.65,0.15-1.86,0.3-1.86,2.07v8.2c0,1.16,0.04,1.69,1.2,1.71
					c0.04,0.02,1.01,0.02,1.1,0.02c1.2,0,1.52-0.25,2.03-0.82c0.4-0.42,0.95-1.33,1.33-2.2L387.93,73.61z"/>
				<path class="st96" d="M400.5,77.33v-0.78c1.33-0.19,1.33-0.42,1.04-1.33c-0.21-0.63-0.55-1.58-0.87-2.43h-4.12
					c-0.23,0.66-0.53,1.46-0.74,2.11c-0.44,1.33,0.06,1.5,1.73,1.65v0.78h-5.22v-0.78c1.33-0.17,1.67-0.36,2.39-2.13l4.4-10.93
					l1.01-0.19c1.35,3.68,2.79,7.44,4.16,10.97c0.78,1.97,0.97,2.11,2.35,2.28v0.78H400.5z M398.64,67.23
					c-0.61,1.52-1.2,2.94-1.73,4.48h3.36L398.64,67.23z"/>
				<path class="st96" d="M420.15,77.46c-0.13,0-0.38,0-0.63-0.02c-2.68-0.13-3.47-0.7-4.1-1.58c-0.85-1.16-1.46-2.45-2.18-3.72
					c-0.32-0.57-0.61-0.7-1.29-0.7l-0.42-0.02v3.08c0,1.71,0.21,1.86,1.8,2.05v0.78h-6.47v-0.78c1.61-0.17,1.8-0.34,1.8-2.05v-8.09
					c0-1.67-0.21-1.9-1.8-2.03V63.6h6.13c1.88,0,2.96,0.21,3.83,0.8c0.85,0.57,1.42,1.5,1.42,2.81c0,1.88-1.25,2.87-2.64,3.42
					c0.32,0.63,1.14,2.01,1.78,2.98c0.74,1.16,1.2,1.73,1.61,2.2c0.49,0.55,0.72,0.72,1.33,0.93L420.15,77.46z M412.1,70.55
					c0.91,0,1.61-0.15,2.07-0.55c0.7-0.59,0.99-1.4,0.99-2.47c0-2.24-1.29-3.04-2.47-3.04c-0.57,0-0.85,0.08-0.97,0.21
					c-0.15,0.13-0.19,0.38-0.19,0.8v5.05H412.1z"/>
				<path class="st96" d="M432.22,67.25c-0.23-0.97-0.7-1.77-0.91-2.07c-0.38-0.44-0.55-0.61-1.8-0.61h-1.35v9.93
					c0,1.78,0.21,1.9,2.09,2.05v0.78h-7.02v-0.78c1.8-0.15,1.99-0.27,1.99-2.05v-9.93h-1.29c-1.18,0-1.52,0.19-1.92,0.7
					c-0.3,0.4-0.59,1.16-0.87,2.01h-0.8c0.15-1.54,0.3-3.19,0.34-4.21h0.63c0.32,0.49,0.57,0.53,1.2,0.53h8.45
					c0.57,0,0.87-0.13,1.23-0.53h0.61c0.02,0.89,0.11,2.75,0.21,4.12L432.22,67.25z"/>
				<path class="st96" d="M442.3,67.08c-0.42-1.35-1.01-2.89-2.96-2.89c-1.23,0-2.03,0.87-2.03,2.05c0,1.16,0.78,1.86,2.64,2.79
					c2.26,1.12,3.7,2.22,3.7,4.31c0,2.49-2.07,4.31-5.09,4.31c-1.35,0-2.56-0.36-3.55-0.66c-0.13-0.49-0.49-2.68-0.63-3.68
					l0.82-0.19c0.42,1.33,1.61,3.63,3.68,3.63c1.29,0,2.07-0.8,2.07-2.16c0-1.23-0.76-1.94-2.54-2.89c-2.2-1.18-3.64-2.24-3.64-4.44
					c0-2.22,1.73-3.97,4.9-3.97c1.46,0,2.56,0.32,3.02,0.38c0.08,0.78,0.23,1.88,0.4,3.21L442.3,67.08z"/>
				<path class="st96" d="M456.68,77.33v-0.78c1.33-0.19,1.33-0.42,1.04-1.33c-0.21-0.63-0.55-1.58-0.87-2.43h-4.12
					c-0.23,0.66-0.53,1.46-0.74,2.11c-0.44,1.33,0.06,1.5,1.73,1.65v0.78h-5.22v-0.78c1.33-0.17,1.67-0.36,2.39-2.13l4.4-10.93
					l1.01-0.19c1.35,3.68,2.79,7.44,4.16,10.97c0.78,1.97,0.97,2.11,2.35,2.28v0.78H456.68z M454.82,67.23
					c-0.61,1.52-1.2,2.94-1.73,4.48h3.36L454.82,67.23z"/>
				<path class="st96" d="M477.77,64.38c-1.29,0.17-1.69,0.44-1.75,1.4c-0.06,0.82-0.13,1.54-0.13,3.38v8.41h-1.18L465.89,67v4.78
					c0,1.84,0.04,2.66,0.11,3.28c0.08,0.93,0.53,1.42,2.09,1.5v0.78h-5.24v-0.78c1.2-0.11,1.73-0.42,1.86-1.42
					c0.08-0.76,0.13-1.52,0.13-3.36v-5.01c0-0.7-0.04-1.16-0.44-1.71c-0.38-0.53-0.89-0.59-1.77-0.68V63.6h4.12l8.05,9.36v-3.8
					c0-1.84-0.02-2.54-0.08-3.32c-0.06-0.91-0.4-1.35-2.16-1.46V63.6h5.22V64.38z"/>
				<path class="st96" d="M485.38,63.6c2.71,0,4.69,0.57,6.04,1.84c1.08,0.99,1.9,2.47,1.9,4.61c0,2.43-1.01,4.29-2.64,5.52
					c-1.56,1.18-3.57,1.78-5.98,1.78h-5.81v-0.78c1.61-0.13,1.8-0.32,1.8-2.07v-8.03c0-1.78-0.23-1.94-1.8-2.07V63.6H485.38z
					 M483.62,74.33c0,1.5,0.38,2.01,1.92,2.01c2.85,0,4.5-1.99,4.5-5.98c0-2.01-0.55-3.76-1.52-4.67c-0.89-0.89-1.99-1.18-3.4-1.18
					c-0.78,0-1.14,0.17-1.27,0.3c-0.19,0.19-0.23,0.55-0.23,1.16V74.33z"/>
				<path class="st96" d="M506.21,63.6c2.71,0,4.69,0.57,6.04,1.84c1.08,0.99,1.9,2.47,1.9,4.61c0,2.43-1.01,4.29-2.64,5.52
					c-1.56,1.18-3.57,1.78-5.98,1.78h-5.81v-0.78c1.61-0.13,1.8-0.32,1.8-2.07v-8.03c0-1.78-0.23-1.94-1.8-2.07V63.6H506.21z
					 M504.45,74.33c0,1.5,0.38,2.01,1.92,2.01c2.85,0,4.5-1.99,4.5-5.98c0-2.01-0.55-3.76-1.52-4.67c-0.89-0.89-1.99-1.18-3.4-1.18
					c-0.78,0-1.14,0.17-1.27,0.3c-0.19,0.19-0.23,0.55-0.23,1.16V74.33z"/>
				<path class="st96" d="M527.49,73.74c-0.11,0.57-0.7,3-0.89,3.59h-10.97v-0.76c1.92-0.19,2.05-0.3,2.05-2.07v-8.07
					c0-1.8-0.25-1.92-1.69-2.05V63.6h6.87c2.22,0,2.96-0.02,3.25-0.04c0.02,0.38,0.13,2.11,0.21,3.42l-0.82,0.11
					c-0.19-0.72-0.55-1.58-0.91-1.96c-0.38-0.42-0.66-0.55-1.73-0.55h-1.37c-0.8,0-0.89,0.04-0.89,0.76v4.42h2.07
					c1.18,0,1.39-0.32,1.71-1.82h0.82v4.71h-0.82c-0.34-1.56-0.51-1.82-1.73-1.82h-2.05v3.63c0,1.46,0.04,1.9,1.35,1.92h1.5
					c1.18,0,1.5-0.15,1.97-0.72c0.53-0.61,0.95-1.39,1.29-2.11L527.49,73.74z"/>
				<path class="st96" d="M536.63,67.08c-0.42-1.35-1.01-2.89-2.96-2.89c-1.23,0-2.03,0.87-2.03,2.05c0,1.16,0.78,1.86,2.64,2.79
					c2.26,1.12,3.7,2.22,3.7,4.31c0,2.49-2.07,4.31-5.09,4.31c-1.35,0-2.56-0.36-3.55-0.66c-0.13-0.49-0.49-2.68-0.63-3.68
					l0.82-0.19c0.42,1.33,1.61,3.63,3.68,3.63c1.29,0,2.07-0.8,2.07-2.16c0-1.23-0.76-1.94-2.54-2.89c-2.2-1.18-3.64-2.24-3.64-4.44
					c0-2.22,1.73-3.97,4.9-3.97c1.46,0,2.56,0.32,3.02,0.38c0.08,0.78,0.23,1.88,0.4,3.21L536.63,67.08z"/>
				<path class="st96" d="M539.65,77.33v-0.78c1.61-0.15,1.8-0.27,1.8-2.05v-8.05c0-1.78-0.21-1.94-1.8-2.07V63.6h6.53v0.78
					c-1.58,0.15-1.8,0.3-1.8,2.07v8.05c0,1.75,0.19,1.88,1.8,2.05v0.78H539.65z"/>
				<path class="st96" d="M562.07,71.54c-1.2,0.21-1.35,0.3-1.35,1.73v1.63c0,0.76,0.02,1.48,0.13,2.05c-1.08,0.19-3.4,0.7-5.11,0.7
					c-4.97,0-7.82-3.02-7.82-7.21c0-4.75,3.87-7.14,8.37-7.14c1.71,0,3.57,0.42,4.27,0.49c0.04,0.93,0.21,2.54,0.36,3.7l-0.82,0.15
					c-0.51-1.8-1.29-2.71-2.6-3.15c-0.49-0.17-1.27-0.25-1.8-0.25c-2.56,0-4.48,2.22-4.48,5.85c0,3.72,1.31,6.66,4.78,6.66
					c0.42,0,0.97-0.06,1.35-0.3c0.32-0.19,0.49-0.55,0.49-1.2v-1.86c0-1.48-0.3-1.63-2.07-1.84v-0.78h6.32V71.54z"/>
				<path class="st96" d="M578.28,64.38c-1.29,0.17-1.69,0.44-1.75,1.4c-0.06,0.82-0.13,1.54-0.13,3.38v8.41h-1.18L566.4,67v4.78
					c0,1.84,0.04,2.66,0.11,3.28c0.08,0.93,0.53,1.42,2.09,1.5v0.78h-5.24v-0.78c1.2-0.11,1.73-0.42,1.86-1.42
					c0.08-0.76,0.13-1.52,0.13-3.36v-5.01c0-0.7-0.04-1.16-0.44-1.71c-0.38-0.53-0.89-0.59-1.78-0.68V63.6h4.12l8.05,9.36v-3.8
					c0-1.84-0.02-2.54-0.08-3.32c-0.06-0.91-0.4-1.35-2.16-1.46V63.6h5.22V64.38z"/>
			</g>
		</g>
		
			<rect x="238.35" y="16.66" transform="matrix(6.123234e-17 -1 1 6.123234e-17 194.2688 284.5269)" class="st96" width="2.09" height="56.93"/>
		<path class="st96" d="M81.91,54.03c0.13-2.37,0.15-3.37,0.15-6.75c0-8.25-0.04-10.77-0.15-11.96c1.09,0.48,1.45,0.67,2.6,1.34
			h12.57c0.54-0.59,0.71-0.75,1.24-1.3c0.77,0.54,1.01,0.71,1.8,1.32c0.13,0.13,0.19,0.21,0.19,0.34c0,0.19-0.17,0.34-0.73,0.69
			c-0.04,3.6-0.04,5.74-0.04,7.27c0,3.52,0.02,6.64,0.1,8.88c0,0.21-0.04,0.31-0.12,0.38c-0.13,0.1-1.05,0.23-1.68,0.23
			c-0.4,0-0.5-0.06-0.5-0.29c0-0.02,0-0.04,0-0.06v-0.88H84.25v0.75c-0.02,0.21-0.06,0.29-0.23,0.36c-0.19,0.04-0.96,0.13-1.43,0.13
			c-0.5,0-0.69-0.1-0.69-0.42V54.03z M84.25,52.8h13.07V37.11H84.25V52.8z M94.83,40.1c0.13-0.15,0.23-0.27,0.34-0.4
			c-0.29-0.02-0.4-0.11-0.54-0.46c-0.38-0.9-0.54-1.17-0.9-1.51l0.06-0.17c0.75,0.04,1.28,0.15,1.72,0.4
			c0.38,0.19,0.5,0.38,0.5,0.71c0,0.17-0.02,0.27-0.1,0.46c0.59,0.48,0.71,0.59,1.28,1.13c0.04,0.06,0.11,0.15,0.11,0.17
			c0,0.06-0.08,0.1-0.15,0.1h-3.9c0.02,1.84,0.02,1.86,0.13,2.97c0.11,0.98,0.15,1.32,0.27,1.86c0.5-1.28,0.86-2.45,1.09-3.62
			c2.16,1.09,2.35,1.17,2.35,1.3c0,0.17-0.23,0.25-0.77,0.31c-0.65,1.8-1.09,2.72-1.93,3.92c0.42,0.82,0.52,0.96,1.01,1.68
			c0.52-0.9,0.71-1.28,1.32-2.45l0.23,0.06l-0.52,2.53c-0.06,0.42-0.06,0.42-0.06,0.48c0,0.19,0.08,0.34,0.38,0.73
			c0.23,0.29,0.31,0.48,0.31,0.78c0,0.52-0.34,0.9-0.75,0.9c-0.48,0-1.11-0.34-1.55-0.84c-0.59-0.63-1.34-1.7-1.68-2.3
			c-1.47,1.49-2.68,2.24-5.19,3.18l-0.15-0.23c2.03-1.3,3.39-2.6,4.69-4.44c-0.42-1.15-0.69-2.45-0.84-4
			c-0.06-0.71-0.06-0.71-0.17-2.83h-5.3c-0.55,0-0.94,0.04-1.45,0.15l-0.19-0.8c0.67,0.15,1.13,0.21,1.63,0.21h5.28
			c-0.06-1.74-0.06-1.74-0.15-2.49c0.48,0.06,0.84,0.1,1.09,0.15c1.19,0.15,1.47,0.23,1.47,0.42c0,0.13-0.13,0.25-0.5,0.44
			c-0.04,0.78-0.04,0.96-0.04,1.49H94.83z M91.38,47.77c-1.95,0.94-3.18,1.42-5.55,2.2c-0.11,0.71-0.17,0.86-0.36,0.86
			c-0.21,0-0.23-0.04-0.92-2.56c1.3-0.02,4.17-0.31,6.83-0.71V47.77z M87.1,46.97c0,0.15-0.04,0.21-0.17,0.27
			c-0.15,0.04-0.8,0.1-1.19,0.1c-0.34,0-0.44-0.06-0.44-0.27c0-0.02,0-0.08,0-0.13c0.04-0.96,0.06-1.51,0.06-2.68
			c0-1.78-0.02-2.35-0.08-2.85c0.82,0.4,1.07,0.52,1.86,1.01h1.66c0.38-0.44,0.5-0.59,0.86-1.01c0.57,0.42,0.73,0.54,1.28,1.01
			c0.1,0.08,0.17,0.17,0.17,0.23c0,0.13-0.08,0.19-0.52,0.46c0,0.48,0,0.86,0,1.09c0,0.54,0,0.86,0.04,2.47
			c-0.02,0.17-0.06,0.25-0.17,0.29c-0.15,0.06-0.88,0.13-1.36,0.13c-0.17,0-0.23-0.04-0.23-0.21v-0.63H87.1V46.97z M87.1,45.82h1.76
			v-2.95H87.1V45.82z"/>
		<path class="st96" d="M111.64,53.55c0.9-2.43,1.24-3.46,1.8-5.61c0.59-2.28,1.05-4.5,1.32-6.39c1.09,0.29,2.76,0.84,3.23,1.03
			c0.29,0.13,0.42,0.23,0.42,0.36c0,0.21-0.29,0.36-0.94,0.44c-1.09,2.66-2.32,5.32-3.6,7.77c-0.36,0.69-0.48,0.92-1.07,1.86
			c-0.11,0.17-0.15,0.23-0.31,0.55h4.11c0.75-0.86,1.01-1.13,1.74-1.99c1.13,0.88,1.51,1.15,2.7,2.12c0.08,0.06,0.1,0.13,0.1,0.17
			c0,0.08-0.08,0.15-0.23,0.15H103.4c-0.46,0-0.8,0.04-1.47,0.15l-0.25-0.82c0.5,0.1,1.4,0.23,1.72,0.23H111.64z M116.16,40.33
			c0.71-0.82,0.92-1.07,1.61-1.89c1.09,0.8,1.45,1.07,2.56,1.95c0.08,0.08,0.13,0.17,0.13,0.23c0,0.08-0.08,0.15-0.19,0.15h-15.98
			c-0.29,0-1.09,0.08-1.47,0.15l-0.23-0.82c0.52,0.13,1.36,0.23,1.7,0.23h5.59v-2.62c0-0.67-0.02-0.96-0.12-1.63
			c0.44,0.04,0.77,0.06,1,0.08c0.67,0.04,1.11,0.08,1.13,0.08c0.86,0.04,1.36,0.23,1.36,0.48c0,0.19-0.25,0.36-0.9,0.57v3.04H116.16
			z M105.41,41.74c2.72,3.35,4.27,6.16,4.27,7.73c0,1.19-1.07,2.74-1.91,2.74c-0.23,0-0.4-0.15-0.48-0.4
			c-0.06-0.21-0.08-0.36-0.13-1.01c-0.27-3.73-0.84-6.37-1.95-8.95L105.41,41.74z"/>
		<path class="st96" d="M131.99,46.71c-1.03,1.03-1.34,1.3-2.07,1.82c3.75-0.04,3.75-0.04,6.05-0.21c-0.57-0.46-0.82-0.63-1.59-1.07
			l0.08-0.19c1.7,0.29,1.95,0.34,2.83,0.59c1.49,0.44,1.97,0.75,1.97,1.4c0,0.5-0.21,0.92-0.63,1.21c0.73,0.57,0.94,0.73,1.74,1.42
			c0.06,0.06,0.08,0.13,0.08,0.17c0,0.06-0.08,0.1-0.19,0.1h-7.04v1.97h4.61c0.71-0.75,0.94-0.96,1.61-1.63
			c1.07,0.71,1.4,0.94,2.45,1.74c0.06,0.08,0.13,0.19,0.13,0.21c0,0.08-0.08,0.13-0.23,0.13h-17.64c-0.5,0-0.73,0.02-1.19,0.1
			l-0.13-0.69c0.48,0.13,0.75,0.15,1.32,0.15h6.81v-1.97h-4.84c-0.36,0-0.63,0.02-1.11,0.08l-0.1-0.67
			c0.44,0.13,0.69,0.15,1.21,0.15h4.84v-1.8c-0.63,0.08-1.15,0.15-1.47,0.19c-1.15,0.15-1.15,0.15-2.16,0.25
			c-0.54,0.04-0.54,0.04-0.96,0.1c-0.1,0.48-0.23,0.69-0.42,0.69c-0.06,0-0.15-0.04-0.19-0.1c-0.19-0.29-0.31-0.78-0.4-1.36
			c-0.04-0.25-0.11-0.63-0.23-1.09c0.15,0,0.15,0,0.61,0c0.04,0,0.21,0.02,0.46,0.04c0.44,0.06,1.17,0.08,2.56,0.08
			c0.27-0.84,0.36-1.11,0.52-1.82h-2.09c-0.42,0-0.65,0.02-1.05,0.08l-0.13-0.69c0.48,0.13,0.71,0.17,1.17,0.17h8.21
			c0.52-0.54,0.69-0.71,1.21-1.21c0.86,0.54,1.13,0.73,1.97,1.36l0.02,0.04c0.21-0.63,0.27-0.84,0.42-1.53h-13.49
			c0,0.78-0.17,1.42-0.5,1.97c-0.36,0.61-0.9,1.03-1.38,1.03c-0.52,0-0.98-0.61-0.98-1.3c0-0.5,0.15-0.75,0.63-0.98
			c1.28-0.65,1.53-1.01,1.68-2.26h0.25c0.19,0.48,0.23,0.69,0.29,1.11h13.41c0.46-0.5,0.61-0.65,1.09-1.09
			c0.88,0.61,1.15,0.8,2.05,1.51c0.17,0.15,0.23,0.25,0.23,0.36c0,0.27-0.21,0.34-1.21,0.38c-0.88,0.65-0.98,0.71-2.6,1.63
			l-0.15-0.1l0.19-0.46h-0.04H131.99z M137.9,37.33l1.43-1.47c1.07,0.67,1.38,0.88,2.41,1.59c0.06,0.06,0.1,0.15,0.1,0.17
			c0,0.08-0.08,0.15-0.23,0.15h-8.38v1.57h3.56c0.63-0.59,0.82-0.78,1.42-1.3c0.84,0.59,1.09,0.8,1.91,1.42
			c0.08,0.1,0.1,0.15,0.1,0.19c0,0.06-0.08,0.13-0.21,0.13h-13.81c-0.42,0-0.69,0.02-1.17,0.08l-0.12-0.69
			c0.57,0.13,0.86,0.17,1.3,0.17h4.76v-1.57h-6.51c-0.44,0-0.65,0.02-1.07,0.08l-0.13-0.67c0.4,0.1,0.73,0.15,1.19,0.15h6.51v-0.31
			c0-0.48-0.02-0.82-0.08-1.47c0.65,0.06,1.15,0.08,1.49,0.1c1.3,0.08,1.72,0.19,1.72,0.46c0,0.21-0.21,0.34-0.86,0.52v0.69H137.9z
			 M135.95,40.91c0.44-0.42,0.59-0.54,1.05-0.92c0.75,0.38,0.98,0.5,1.74,0.94c0.17,0.1,0.23,0.19,0.23,0.29
			c0,0.17-0.1,0.25-0.65,0.57c-0.02,0.21-0.02,0.36-0.02,0.46c0,0.04,0,0.29,0.02,0.65c0,0.11,0.02,0.27,0.02,0.52
			c-0.02,0.15-0.04,0.23-0.13,0.27c-0.17,0.15-0.8,0.25-1.36,0.25c-0.59,0-0.73-0.06-0.78-0.36v-0.34h-7.67v0.34
			c-0.02,0.08-0.06,0.15-0.11,0.19c-0.15,0.1-0.77,0.19-1.38,0.19c-0.57,0-0.73-0.08-0.78-0.38c0.02-0.84,0.04-1.32,0.04-1.68
			c0-0.71-0.02-1.15-0.08-1.99c1.05,0.4,1.36,0.52,2.39,0.98H135.95z M128.41,41.35v1.47h7.67v-1.47H128.41z M136.87,51.53
			c0.59-0.61,0.73-0.73,1.19-1.17c-0.23-0.08-0.36-0.19-0.61-0.54c-0.27-0.38-0.48-0.61-0.84-0.92c-1.24,0.15-1.24,0.15-2.12,0.34
			c-0.04,0.02-0.29,0.04-0.63,0.1c-0.15,0-0.38,0.04-0.65,0.08v2.12H136.87z"/>
		<path class="st96" d="M159.19,37.84c0.73-0.84,0.94-1.09,1.61-1.86c1.11,0.82,1.42,1.07,2.45,1.97c0.08,0.08,0.13,0.15,0.13,0.19
			c0,0.08-0.1,0.15-0.25,0.15h-8.57v2.58h4.73c0.54-0.57,0.71-0.73,1.24-1.28c0.82,0.54,1.07,0.73,1.8,1.28
			c0.17,0.13,0.25,0.23,0.25,0.34c0,0.19-0.19,0.34-0.8,0.69v6.93c0,0.84,0,0.84,0.06,3.46c-0.02,1.15-0.38,1.63-1.55,1.99
			c-0.38,0.13-1.11,0.23-1.47,0.23c-0.21,0-0.27-0.06-0.29-0.38c-0.02-0.36-0.13-0.71-0.27-0.92c-0.36-0.44-0.75-0.63-2.62-1.15
			l0.02-0.27c2.09,0.15,2.22,0.15,3.44,0.19c0.04,0,0.06,0,0.08,0c0.25,0,0.34-0.06,0.34-0.34V41.3h-11.88v12.63
			c0,0.52-0.23,0.61-1.53,0.61c-0.75,0-0.86-0.06-0.86-0.44c0.08-2.3,0.15-5.84,0.15-9.53c0-2.53-0.04-3.33-0.15-4.96
			c1.13,0.5,1.49,0.67,2.56,1.26h4.42v-2.58h-6.33c-0.71,0-1.07,0.02-1.57,0.15l-0.11-0.78c0.55,0.13,1.05,0.19,1.68,0.19h6.33
			v-0.17c0-1.15-0.02-1.47-0.13-2.41c2.66,0.23,2.83,0.23,3.08,0.34c0.17,0.06,0.27,0.15,0.27,0.25c0,0.21-0.25,0.36-0.9,0.57v1.42
			H159.19z M154.44,48.46h1.44c0.44-0.54,0.86-1.05,1.24-1.51c0.82,0.67,1.05,0.88,1.82,1.61c0.08,0.08,0.13,0.15,0.13,0.21
			c0,0.08-0.08,0.13-0.23,0.13h-4.4v0.73c0,0.61,0.04,2.85,0.08,3.69c0,0.5-0.19,0.57-1.49,0.57c-0.71,0-0.8-0.06-0.8-0.44
			c0.04-1.34,0.08-3.1,0.08-3.81V48.9h-2.53c-0.5,0-0.84,0.04-1.3,0.13l-0.11-0.73c0.5,0.13,0.9,0.17,1.43,0.17h2.51v-2.68h-2.97
			c-0.4,0-0.69,0.02-1.19,0.13l-0.13-0.73c0.48,0.13,0.82,0.17,1.32,0.17h1.7c-0.25-0.15-0.29-0.23-0.42-0.8
			c-0.27-1.3-0.46-1.76-1.11-2.74l0.15-0.13c2.18,0.75,3.06,1.4,3.06,2.26c0,0.61-0.36,1.09-1.03,1.4h2.14
			c0.67-1.4,1.09-2.6,1.32-3.75c2.56,0.82,2.93,0.98,2.93,1.21c0,0.21-0.29,0.29-1.01,0.31c-1.24,1.21-1.47,1.42-2.51,2.22h1.74
			c0.55-0.65,0.71-0.84,1.24-1.42c0.84,0.69,1.09,0.9,1.82,1.61c0.06,0.06,0.11,0.1,0.11,0.15c0,0.06-0.08,0.1-0.19,0.1h-4.84V48.46
			z"/>
		<path class="st96" d="M175.43,41.71c0.54,2.47,1.59,4.52,3.16,6.18c1.01,1.07,2.41,2.05,3.81,2.7c0.78,0.36,1.36,0.55,2.43,0.82
			l-0.02,0.27c-1.11,0.54-1.68,1.13-2.03,2.14c-0.11,0.29-0.19,0.38-0.31,0.38c-0.21,0-0.65-0.25-1.32-0.73
			c-2.14-1.57-3.65-3.62-4.76-6.45c-0.52-1.38-0.86-2.68-1.17-4.61c-0.36,3.48-1.47,6.03-3.5,8.07c-1.28,1.28-2.81,2.35-4.44,3.1
			c-0.75,0.36-1.3,0.57-2.51,1.01l-0.13-0.27c3.12-1.99,4.65-3.44,5.97-5.55c1.19-1.95,1.91-4.27,2.16-7.04h-5.55
			c-0.75,0-1.26,0.04-1.95,0.15l-0.11-0.78c0.69,0.13,1.32,0.19,2.07,0.19h5.57c0.08-1.03,0.11-1.99,0.11-3.37
			c0-1.01-0.02-1.34-0.11-2.22c0.75,0.06,1.32,0.1,1.7,0.15c1.47,0.1,1.91,0.23,1.91,0.5c0,0.21-0.23,0.36-0.9,0.59
			c-0.06,2.24-0.08,3.06-0.19,4.36h4.69l1.59-2.03c1.17,0.88,1.51,1.15,2.62,2.07c0.11,0.13,0.15,0.19,0.15,0.25
			c0,0.08-0.11,0.15-0.25,0.15H175.43z"/>
		<path class="st96" d="M191.13,39.19c0.46-0.46,0.59-0.61,1.05-1.05c0.48,0.4,0.48,0.4,1.38,1.17c0.61-0.48,1.11-1.03,1.72-1.76
			c-0.54-0.48-0.8-0.67-1.36-1.05l0.1-0.17c0.84,0.23,1.17,0.34,1.76,0.57c0.52-0.73,0.61-0.9,0.88-1.51l1.49,0.69
			c0.29,0.13,0.42,0.25,0.42,0.36c0,0.15-0.17,0.23-0.46,0.23c-0.06,0-0.19,0-0.29,0c-0.61,0.59-0.61,0.59-0.86,0.82l0.19,0.1
			c0.61,0.36,0.75,0.55,0.75,1.01c0,0.48-0.27,0.94-0.57,0.94c-0.15,0-0.23-0.06-0.59-0.5c-0.19-0.27-0.38-0.46-0.69-0.78
			c-0.9,0.63-1.32,0.86-2.45,1.3c-0.04,0.04-0.11,0.06-0.23,0.06h-3.29l0.06,1.93h1.09c0.48-0.48,0.63-0.61,1.09-1.05
			c0.65,0.48,0.84,0.65,1.44,1.22c0.04,0.06,0.06,0.1,0.06,0.15c0,0.08-0.08,0.13-0.23,0.13h-3.44l0.06,1.82h10.48l0.1-2.09h-1.15
			c-0.42,0-0.59,0.02-0.92,0.1l-0.15-0.67c0.36,0.08,0.61,0.13,1.03,0.13h1.22l0.1-2.01h-1.32c-0.36,0-0.54,0.02-0.92,0.08
			l-0.15-0.65c0.4,0.1,0.59,0.13,1.07,0.13h1.34l0.11-1.99h-1.4c-0.34,0-0.5,0.02-0.82,0.1l-0.15-0.69
			c0.36,0.11,0.61,0.15,0.96,0.15h1.21c0.52-0.48,0.67-0.63,1.17-1.05c0.71,0.44,0.92,0.59,1.63,1.11c0.13,0.1,0.19,0.19,0.19,0.27
			c0,0.19-0.15,0.29-0.78,0.57l-0.34,6.51h0.02c0.44-0.46,0.59-0.61,1.05-1.05c0.73,0.65,0.96,0.86,1.72,1.61
			c0.13,0.13,0.17,0.19,0.17,0.27c0,0.19-0.31,0.34-0.67,0.34c-0.06,0-0.27-0.02-0.5-0.04c-0.94,0.61-2.05,1.19-2.85,1.51
			c0.04,0.08,0.06,0.13,0.06,0.17c0,0.19-0.17,0.31-0.44,0.31c-0.15,0-0.5-0.04-0.84-0.08c-1.53,0.65-2.07,0.84-3.33,1.19
			c0.13,0.08,0.19,0.15,0.19,0.23c0,0.06-0.04,0.15-0.1,0.17c-0.06,0.04-0.19,0.08-0.38,0.13c-0.06,0-0.17,0.04-0.29,0.08v0.65h4.86
			c0.71-0.73,0.92-0.94,1.57-1.66c0.96,0.73,1.26,0.96,2.24,1.7c0.06,0.1,0.08,0.19,0.08,0.25c0,0.13-0.04,0.15-0.29,0.15h-8.46
			v2.64c0,0.15,0.02,0.34,0.02,0.63c-0.02,0.75-0.19,1.13-0.61,1.4c-0.54,0.34-1.34,0.55-2.07,0.55c-0.29,0-0.36-0.08-0.38-0.38
			c-0.04-0.94-0.75-1.34-3.16-1.76v-0.25c1.36,0.08,2.85,0.17,3.62,0.21c0.04,0,0.08,0,0.11,0s0.04,0,0.04,0
			c0.19,0,0.25-0.06,0.25-0.21v-2.83h-6.12c-0.8,0-1.17,0.02-1.95,0.13l-0.15-0.75c0.82,0.15,1.26,0.19,2.09,0.19h6.12v-0.65
			c0-0.36-0.02-0.63-0.08-1.09c1.26,0.13,1.57,0.17,2.09,0.27c0.78-0.52,1.07-0.78,1.89-1.57h-7.44c-0.69,0-0.96,0.02-1.53,0.13
			l-0.15-0.73c0.67,0.13,0.98,0.17,1.68,0.17h7.58c0.46-0.44,0.61-0.59,1.11-0.98c0.9,0.63,1.17,0.82,1.97,1.45
			c0.31-0.63,0.48-0.96,0.96-2.03h-14.35c0.02,0.15,0.02,0.23,0.02,0.36c0,1.49-0.84,2.85-1.76,2.85c-0.5,0-0.88-0.59-0.88-1.36
			c0-0.29,0.06-0.54,0.21-0.67c0.08-0.1,0.08-0.1,0.52-0.34c0.77-0.38,1.13-1.09,1.15-2.26l0.23-0.04c0.25,0.54,0.29,0.65,0.42,1.03
			h0.21l-0.27-6.62c0-0.29-0.02-0.42-0.13-1.28c0.9,0.36,1.17,0.5,2.05,0.98c0.1-0.06,0.17-0.1,0.23-0.15
			c1.01-0.65,1.51-1.07,1.86-1.57c1.4,1.05,1.78,1.38,1.78,1.55c0,0.1-0.1,0.19-0.25,0.19c-0.08,0-0.38-0.04-0.67-0.1
			c-1.61,0.44-1.61,0.44-2.85,0.67l0.06,1.7H191.13z M193.94,40.26c0.71,0.19,1.05,0.29,1.74,0.59c0.44-0.52,0.67-0.82,0.77-1.03
			c0.08-0.17,0.08-0.19,0.17-0.25c0.5,0.21,1.13,0.52,1.49,0.73c0.21,0.13,0.29,0.21,0.29,0.31c0,0.13-0.21,0.21-0.54,0.21
			c-0.04,0-0.15,0-0.23-0.02c-0.29,0.31-0.4,0.4-0.67,0.65c0.86,0.5,1.01,0.69,1.01,1.24c0,0.5-0.27,0.92-0.59,0.92
			c-0.17,0-0.31-0.13-0.52-0.44c-0.23-0.34-0.46-0.63-0.86-1.05c-1.05,0.63-1.44,0.8-3.08,1.36l-0.1-0.17
			c1.15-0.75,1.53-1.07,2.39-1.93c-0.55-0.46-0.8-0.63-1.36-0.96L193.94,40.26z"/>
		<path class="st96" d="M86.23,69.61c0.78,0.25,1.4,0.54,2.05,0.98c0.84,0.57,1.15,0.98,1.15,1.49c0,0.84-0.63,1.76-1.21,1.76
			c-0.27,0-0.44-0.31-1.01-1.97c-0.34-0.96-0.59-1.42-0.98-1.82v4.86c0,2.22,0,2.28,0.04,4.44c-0.04,0.21-0.08,0.31-0.21,0.4
			c-0.21,0.13-0.69,0.19-1.36,0.19c-0.61,0-0.73-0.06-0.75-0.38c0.04-1.17,0.11-3.88,0.11-4.5v-3.48c-1.07,0.9-1.57,1.28-2.72,2.01
			l-0.19-0.23c1.17-1.15,1.99-2.18,2.95-3.69c0.96-1.49,1.55-2.66,2.2-4.38h-3.29c-0.65,0-0.92,0.02-1.4,0.1l-0.15-0.73
			c0.52,0.13,0.96,0.19,1.57,0.19h1.03v-2.47c0-0.54-0.02-0.9-0.13-1.65c0.65,0.06,1.13,0.1,1.47,0.13c1.3,0.11,1.68,0.21,1.68,0.46
			c0,0.19-0.23,0.34-0.86,0.59v2.95h0.52c0.4-0.5,0.52-0.65,0.96-1.11c0.71,0.52,0.92,0.69,1.57,1.26c0.17,0.15,0.23,0.23,0.23,0.31
			c0,0.19-0.25,0.34-0.88,0.52c-0.92,1.72-1.66,2.83-2.39,3.6V69.61z M97.36,77.19c0,0.4,0,0.4,0.8,0.4c0.59,0,0.78-0.13,0.96-0.63
			c0.17-0.48,0.71-2.41,1.03-3.62h0.23l-0.04,3.33c0,0.04,0,0.11,0,0.15c0,0.44,0.04,0.48,0.38,0.59c0.48,0.17,0.65,0.38,0.65,0.86
			c0,0.52-0.4,0.96-1.05,1.15c-0.38,0.13-1.34,0.19-2.47,0.19c-2.3,0-2.68-0.21-2.68-1.45V72.4h-2.99v0.34
			c2.05,0.31,2.56,0.46,2.56,0.67c0,0.15-0.19,0.27-0.61,0.38c-0.5,1.89-1.34,3.25-2.66,4.27c-1.19,0.92-2.64,1.51-4.73,1.89
			l-0.08-0.27c1.51-0.65,2.47-1.3,3.33-2.26c1.01-1.11,1.59-2.37,1.89-4.02c-0.46,0.06-0.61,0.06-1.26,0.06
			c-0.61,0-0.71-0.08-0.75-0.46c0.06-3.23,0.08-5.51,0.08-8.53c0-1.68-0.02-2.43-0.1-3.67c1.13,0.44,1.49,0.59,2.62,1.15h4.61
			c0.48-0.54,0.63-0.71,1.15-1.24c0.8,0.52,1.03,0.69,1.74,1.24c0.19,0.15,0.27,0.25,0.27,0.34c0,0.19-0.15,0.31-0.71,0.63
			c0,4.71,0.02,6.58,0.08,9.72c-0.02,0.31-0.1,0.44-0.36,0.52c-0.19,0.06-0.96,0.13-1.45,0.13c-0.19,0-0.25-0.02-0.42-0.08V77.19z
			 M97.19,62.38h-5.03v2.83h5.03V62.38z M92.16,65.65v2.83h5.03v-2.83H92.16z M92.16,68.94v3.02h5.03v-3.02H92.16z"/>
		<path class="st96" d="M108.06,75.39v0.25c-0.02,0.15-0.04,0.21-0.13,0.25c-0.17,0.1-0.69,0.17-1.32,0.17
			c-0.59,0-0.73-0.08-0.75-0.44c0.06-1.42,0.08-3.02,0.08-5.28c0-0.84-0.02-1.36-0.06-1.95c1.03,0.4,1.34,0.55,2.41,1.09h7.23
			c0.42-0.34,0.82-0.65,1.17-0.94c0.63,0.44,0.84,0.59,1.51,1.09c0.25-0.46,0.38-0.67,0.69-1.36h-14.6
			c0.04,0.25,0.04,0.36,0.04,0.54c0,1.34-0.67,2.45-1.49,2.45c-0.5,0-0.92-0.63-0.92-1.38c0-0.29,0.08-0.52,0.29-0.69
			c0.04-0.04,0.04-0.04,0.31-0.23c0.67-0.44,1.11-1.21,1.11-1.93v-0.19l0.21-0.02c0.21,0.46,0.27,0.63,0.36,1.01h0.31l-0.21-5.43
			c-0.02-0.73-0.02-0.88-0.1-1.34c0.82,0.38,1.05,0.5,1.82,0.98c1.01-0.57,1.59-1.03,2.16-1.68c1.89,1.19,1.89,1.19,1.89,1.4
			c0,0.13-0.08,0.21-0.25,0.21c-0.06,0-0.42-0.04-0.71-0.08c-0.29,0.06-0.29,0.06-1.24,0.27c-0.44,0.1-0.86,0.19-1.59,0.31
			l0.06,1.38h1.05c0.42-0.42,0.54-0.54,0.96-0.94c0.52,0.42,0.63,0.5,1.15,1.01c0.9-0.65,1.13-0.86,1.89-1.57
			c-0.52-0.38-0.71-0.48-1.28-0.78l0.1-0.17c0.69,0.13,1.03,0.23,1.68,0.44c0.48-0.52,0.57-0.63,1.03-1.3
			c1.47,0.67,1.84,0.9,1.84,1.03c0,0.13-0.15,0.21-0.4,0.21c-0.1,0-0.25,0-0.42-0.02c-0.34,0.27-0.44,0.38-0.75,0.61
			c0.8,0.36,1.03,0.61,1.03,1.09c0,0.42-0.25,0.82-0.52,0.82c-0.17,0-0.21-0.02-0.59-0.46c-0.19-0.21-0.44-0.46-0.88-0.84
			c-0.5,0.29-1.68,0.82-2.56,1.13c0.02,0.04,0.02,0.06,0.02,0.08c0,0.08-0.08,0.1-0.27,0.1h-3.06l0.04,1.55h1.05
			c0.4-0.44,0.52-0.57,0.94-0.96c0.61,0.46,0.78,0.61,1.38,1.15c0.06,0.06,0.08,0.11,0.08,0.15c0,0.04-0.08,0.1-0.17,0.1h-3.27
			l0.06,1.53h10.64l0.11-1.68h-1.32c-0.42,0-0.61,0.02-1.07,0.1l-0.17-0.69c0.48,0.1,0.73,0.15,1.15,0.15h1.42l0.11-1.59h-1.45
			c-0.42,0-0.63,0.02-1.01,0.1l-0.17-0.69c0.48,0.1,0.82,0.15,1.17,0.15h1.47l0.11-1.68h-1.53c-0.42,0-0.63,0.02-0.98,0.1
			l-0.17-0.69c0.65,0.13,0.75,0.15,1.15,0.15h1.36c0.5-0.42,0.65-0.55,1.11-0.92c0.69,0.44,0.92,0.59,1.61,1.09
			c0.15,0.1,0.19,0.17,0.19,0.25c0,0.19-0.15,0.29-0.71,0.54l-0.36,5.3h0.17c0.44-0.46,0.57-0.61,1.01-0.98
			c0.71,0.61,0.92,0.82,1.61,1.53c0.13,0.13,0.17,0.21,0.17,0.29c0,0.21-0.21,0.34-0.52,0.34c-0.17,0-0.38-0.02-0.61-0.04
			c-0.59,0.36-0.59,0.36-1.28,0.73c-0.21,0.13-0.52,0.27-0.88,0.48c-0.15,0.08-0.48,0.25-1.03,0.5c0,2.83,0,2.83,0.08,4.8
			c0,0.17-0.04,0.27-0.11,0.34c-0.19,0.13-0.69,0.21-1.36,0.21c-0.57,0-0.67-0.04-0.69-0.29v-0.34h-0.92v2.03
			c0,0.29,0.02,0.36,0.17,0.4c0.13,0.04,0.86,0.06,2.31,0.06c1.61,0,1.97-0.06,2.2-0.31c0.23-0.29,0.59-1.21,1.26-3.29l0.23,0.04
			l-0.17,2.62c0,0.29,0,0.29,0,0.31c0,0.29,0,0.29,0.63,0.52c0.23,0.06,0.38,0.36,0.38,0.67c0,0.98-0.88,1.22-4.48,1.22
			c-3.39,0-3.83-0.02-4.21-0.27c-0.29-0.19-0.4-0.46-0.4-1.07c0-0.21,0-0.34,0-0.44v-2.49H108.06z M102.2,79.85
			c2.53-0.59,3.9-1.19,5.07-2.26c0.63-0.57,1.09-1.32,1.28-1.99c0.54,0.08,0.98,0.15,1.26,0.17c1.26,0.19,1.59,0.27,1.59,0.5
			c0,0.19-0.25,0.31-0.78,0.38c-0.75,1.13-1.32,1.7-2.22,2.2c-1.57,0.84-3.23,1.19-6.18,1.28L102.2,79.85z M115.73,69.93h-7.67v1.34
			h7.67V69.93z M108.06,71.71v1.36h7.67v-1.36H108.06z M108.06,73.51v1.45h7.67v-1.45H108.06z M110.09,64.73
			c0.73,0.19,1.07,0.31,1.8,0.57c0.52-0.52,0.67-0.71,0.86-1.09c1.51,0.67,1.8,0.82,1.8,0.98c0,0.08-0.13,0.17-0.27,0.17
			c0,0-0.04,0-0.06,0c-0.08,0-0.25,0-0.44-0.02c-0.27,0.25-0.38,0.36-0.59,0.5c0.77,0.38,1.07,0.67,1.07,1.07
			c0,0.42-0.23,0.75-0.52,0.75c-0.17,0-0.27-0.06-0.44-0.27c-0.29-0.34-0.63-0.65-1.03-0.98c-1.13,0.57-1.53,0.71-3.12,1.13
			l-0.08-0.1c1.13-0.67,1.34-0.8,2.33-1.68c-0.52-0.34-0.75-0.46-1.4-0.84L110.09,64.73z"/>
		<path class="st96" d="M132.75,67.74c0,0.27,0.02,0.29,0.44,0.44c0.17,0.08,0.27,0.21,0.27,0.42c0,0.48-0.48,0.69-1.61,0.69
			c-0.04,0-0.38,0-0.63-0.02c-0.4,0-0.75,0-1.05,0c-0.19,0-0.25,0-0.42-0.04c-0.02,0.19-0.19,0.29-0.57,0.4v0.69h1.15
			c0.48-0.44,0.61-0.57,1.07-0.96c0.63,0.46,0.82,0.61,1.43,1.11c0.06,0.06,0.08,0.13,0.08,0.17c0,0.08-0.11,0.13-0.23,0.13h-3.5
			v1.19c0.17-0.02,0.17-0.02,0.5-0.04c0.96-0.06,0.96-0.06,3.1-0.34l0.04,0.17c-1.72,0.67-2.37,0.84-7.88,2.22
			c-0.02,0.48-0.11,0.67-0.31,0.67c-0.23,0-0.31-0.21-0.92-2.41c0.1,0,0.19,0,0.23,0c0.29,0.02,0.48,0.02,0.54,0.02
			c0.04,0,0.04,0,0.92-0.02c0.08,0,0.42-0.02,0.9-0.06c0.19-0.02,0.5-0.04,0.9-0.06v-1.34h-1.19c-0.5,0-0.84,0.02-1.49,0.13
			l-0.15-0.71c0.61,0.1,1.03,0.15,1.63,0.15h1.19v-0.48c0-0.36-0.02-0.57-0.08-1.01c0.52,0.02,0.82,0.04,1.11,0.06
			c0.31,0,0.46,0.02,0.73,0.04c-0.08-0.15-0.11-0.21-0.11-0.5c0-0.1,0-0.1,0-0.31c0-0.04,0-0.04,0-0.84v-0.13h-1.19
			c-0.46,1.61-1.47,2.35-4.13,2.93l-0.06-0.17c1.55-0.86,2.01-1.45,2.26-2.76h-0.57c-0.55,0-0.88,0.02-1.51,0.08l-0.15-0.71
			c0.59,0.15,1.01,0.19,1.66,0.19h2.03v-1.28h-1.3c-0.52,0-0.86,0.02-1.51,0.1l-0.13-0.71c0.63,0.13,1.01,0.17,1.63,0.17h1.3v-0.65
			c0-0.31-0.02-0.5-0.06-0.9c0.54,0.02,0.59,0.02,1.3,0.1c0.31,0.04,0.31,0.04,0.46,0.04l-0.04-0.19c0-0.1,0.02-0.38,0.02-0.82h-3.1
			c-0.78,0-1.22,0.02-1.99,0.13l-0.15-0.75c0.84,0.15,1.4,0.19,2.14,0.19h3.12c0.02-0.31,0.02-0.38,0.02-0.44
			c0-0.5-0.02-0.82-0.12-1.36c0.31,0.02,0.31,0.02,1.34,0.1c1.3,0.08,1.65,0.19,1.65,0.4c0,0.21-0.17,0.29-0.75,0.48
			c0,0.48,0,0.48,0,0.54s0,0.15,0,0.27h3.69c0-0.96-0.02-1.3-0.08-1.76c2.83,0.25,3.02,0.27,3.02,0.57c0,0.19-0.17,0.29-0.78,0.44
			c0,0.38,0,0.4,0,0.75h1.99c0.67-0.67,0.88-0.88,1.51-1.49c0.98,0.67,1.3,0.88,2.3,1.63c0.04,0.06,0.08,0.13,0.08,0.17
			c0,0.06-0.11,0.13-0.21,0.13h-5.68c0,0.34,0,0.34,0.02,0.65c-0.04,0.29-0.15,0.36-0.94,0.46c0.29,0.02,0.44,0.04,0.63,0.04
			c0.98,0,1.57,0.17,1.57,0.42c0,0.19-0.17,0.29-0.71,0.48c0,0.67,0,0.88-0.04,1.32h1.21c0.4-0.46,0.52-0.59,0.96-1.01
			c0.65,0.38,0.84,0.52,1.47,0.98c0.13,0.11,0.19,0.19,0.19,0.27c0,0.15-0.15,0.25-0.71,0.57c0,0.21,0,0.34,0,0.42
			c0,0.67,0.12,1.57,0.36,2.37c0.13,0.42,0.25,0.67,0.57,1.24c0.46-0.75,0.46-0.75,1.3-2.45l0.15,0.04l-0.46,2.35l-0.02,0.17
			c-0.02,0.15-0.04,0.23-0.06,0.29c-0.02,0.1-0.02,0.21-0.02,0.27c0,0.15,0.08,0.31,0.31,0.67c0.19,0.25,0.25,0.42,0.25,0.63
			c0,0.5-0.34,0.86-0.8,0.86c-0.88,0-1.78-0.82-2.51-2.28c-0.57-1.13-0.82-2.49-0.96-4.94h-1.26c-0.12,1.15-0.27,1.78-0.59,2.6
			c1.11,0.71,1.3,0.96,1.3,1.63s-0.36,1.26-0.75,1.26c-0.23,0-0.38-0.19-0.59-0.65c-0.19-0.38-0.36-0.67-0.63-1.07
			c-0.94,1.3-1.93,2.07-3.62,2.81l-0.11-0.15c1.45-1.26,2.18-2.33,2.68-3.85c-0.08-0.1-0.52-0.5-1.3-1.21l0.15-0.15
			c0.61,0.23,0.84,0.34,1.36,0.57c0.11-0.54,0.17-1.01,0.21-1.78h-0.65c-0.4,0-0.73,0.02-1.34,0.1l-0.13-0.69
			c0.54,0.1,0.94,0.15,1.47,0.15h0.67c0-0.36,0.02-0.67,0.02-0.82c0-0.63-0.02-0.92-0.11-1.42c-0.19-0.02-0.31-0.04-0.42-0.04
			c-0.25-0.02-0.34-0.08-0.34-0.36c0.04-0.29,0.04-0.4,0.06-0.73h-3.69c0.02,0.4,0.02,0.65,0.02,0.71c0,0.13-0.04,0.21-0.08,0.25
			c-0.15,0.1-0.52,0.19-0.92,0.19c-0.06,0-0.23,0-0.42-0.02c0.13,0.06,0.19,0.13,0.19,0.21c0,0.13-0.19,0.25-0.65,0.42v0.65h1.09
			c0.48-0.44,0.63-0.59,1.07-1.03c0.61,0.48,0.78,0.63,1.36,1.19c0.06,0.06,0.08,0.1,0.08,0.17s-0.11,0.11-0.23,0.11h-3.37v1.28
			h1.76c0.44-0.46,0.59-0.59,1.03-1.01c0.61,0.48,0.8,0.65,1.38,1.19c0.04,0.06,0.06,0.13,0.06,0.17c0,0.04-0.08,0.08-0.17,0.08
			h-0.5V67.74z M132.48,75.72c-0.44,0.5-1.32,1.32-1.99,1.84c1.17-0.02,3.39-0.15,6.2-0.36c-0.48-0.36-0.61-0.44-1.53-0.98
			l0.04-0.17c2.6,0.44,2.87,0.5,3.81,0.82c1.03,0.36,1.57,0.92,1.57,1.65s-0.48,1.38-1.01,1.38c-0.27,0-0.44-0.13-0.75-0.57
			c-0.36-0.5-0.8-0.98-1.4-1.51c-2.62,0.59-6.77,1.24-10.6,1.65c-0.11,0.5-0.21,0.69-0.38,0.69c-0.25,0-0.44-0.48-1.05-2.68
			c0.75,0.08,1.36,0.1,2.43,0.1c0.46,0,0.75,0,1.36,0c0.21-0.5,0.38-1.05,0.59-1.89h-3.31c-0.88,0-1.36,0.04-2.24,0.15l-0.19-0.8
			c1.01,0.17,1.51,0.21,2.43,0.21h12.21c0.69-0.65,0.9-0.84,1.53-1.42c0.9,0.63,1.17,0.86,2.05,1.59c0.04,0.06,0.08,0.13,0.08,0.17
			c0,0.06-0.1,0.1-0.21,0.1H132.48z M135.89,73.52c0.61-0.61,0.8-0.78,1.42-1.34c0.86,0.63,1.11,0.82,1.95,1.51
			c0.04,0.06,0.06,0.1,0.06,0.15c0,0.06-0.1,0.13-0.25,0.13h-9.38c-0.67,0-1.07,0.02-1.8,0.1l-0.15-0.71
			c0.65,0.13,1.21,0.17,1.95,0.17H135.89z M130.53,67.15v0.73c0,0.19,0,0.21,0.11,0.25c0.06,0.04,0.42,0.06,0.9,0.06
			c0.5,0,0.54-0.04,0.98-1.05H130.53z"/>
		<path class="st96" d="M146.21,71.1c-0.82,0.71-1.21,1.01-2.22,1.63l-0.15-0.19c1.13-1.38,1.82-2.41,2.66-4.02
			c0.67-1.32,1.07-2.22,1.38-3.25c2.43,0.88,2.66,0.98,2.66,1.22c0,0.19-0.21,0.27-0.84,0.4c-0.82,1.24-1.19,1.76-1.78,2.47
			c0.94,0.17,1.09,0.23,1.09,0.44c0,0.15-0.15,0.23-0.69,0.4v3.65c0,1.38,0,1.49,0.02,3.23c0,0.75,0,0.75,0,2.2
			c0,0.57-0.29,0.71-1.42,0.71c-0.67,0-0.82-0.1-0.82-0.54c0.06-2.66,0.1-4.34,0.1-5.3V71.1z M144.1,66.57
			c1.8-2.03,2.95-3.9,3.67-5.93c0.59,0.23,1.07,0.4,1.36,0.5c1.4,0.5,1.61,0.61,1.61,0.82c0,0.23-0.29,0.31-0.98,0.34
			c-1.93,2.24-3.06,3.14-5.49,4.44L144.1,66.57z M160.29,62.93c0.46-0.52,0.9-1.05,1.36-1.57c0.9,0.69,1.17,0.92,2.03,1.68
			c0.08,0.08,0.13,0.17,0.13,0.21c0,0.08-0.11,0.13-0.21,0.13h-5.22c-0.06,0.42-0.29,0.75-0.69,1.03c0.57,0.48,0.77,0.65,1.44,1.24
			c0.06,0.06,0.11,0.15,0.11,0.19c0,0.08-0.11,0.13-0.23,0.13h-3.92v2.28c0,0.59,0,1.45,0,1.55c0,2.12,0.04,6.05,0.1,9.41
			c0,0.25-0.04,0.4-0.15,0.48c-0.19,0.17-0.71,0.27-1.32,0.27c-0.63,0-0.82-0.1-0.82-0.48c0-0.02,0-0.06,0-0.1
			c0.11-4.71,0.11-4.71,0.13-10.58c-0.19,0.15-0.25,0.17-0.71,0.27c-0.5,2.79-0.71,3.71-1.22,5.09c-0.54,1.53-1.07,2.56-1.95,3.92
			l-0.25-0.13c0.42-1.45,0.67-2.64,0.94-4.65c0.27-1.91,0.44-3.75,0.44-4.84c0-0.11,0-0.31-0.02-0.57c0.63,0.13,1.11,0.21,1.42,0.27
			c0.98,0.17,1.13,0.21,1.34,0.36l-0.02-2.56h-1.55c-0.34,0-0.61,0.02-1.24,0.08l-0.15-0.69c0.57,0.13,1.03,0.17,1.45,0.17h1.49
			c0-3.14,0-3.14-0.13-4.52c2.58,0.27,2.83,0.31,2.83,0.61c0,0.17-0.17,0.27-0.61,0.44l-0.02,3.48h1.15
			c0.38-0.46,0.52-0.63,0.8-0.94c-0.29-0.1-0.36-0.19-0.46-0.75c-0.19-1.09-0.25-1.3-0.65-1.99l0.13-0.15
			c1.45,0.5,2.03,0.82,2.26,1.26H160.29z M155.81,68.02c1.57,2.3,2.66,4.78,2.66,6.05c0,1.03-0.84,2.26-1.53,2.26
			c-0.34,0-0.4-0.19-0.4-1.3c-0.04-2.43-0.36-4.88-0.94-6.89L155.81,68.02z M161.88,72.65c0,0.34,0.02,2.07,0.04,5.26
			c-0.04,1.13-0.42,1.55-1.59,1.86c-0.34,0.08-0.96,0.17-1.24,0.17c-0.21,0-0.25-0.04-0.29-0.4c-0.1-1.01-0.57-1.34-2.58-1.84
			l0.02-0.25c1.32,0.13,1.78,0.15,3.16,0.17c0.25,0,0.31-0.06,0.31-0.29v-9.68h-1.15c-0.36,0-0.63,0.02-1.09,0.1l-0.15-0.71
			c0.48,0.1,0.88,0.17,1.3,0.17h2.05l1.34-1.59c0.86,0.69,1.13,0.92,1.97,1.7c0.08,0.08,0.13,0.15,0.13,0.21s-0.08,0.13-0.23,0.13
			h-2.01V72.65z"/>
		<path class="st96" d="M180.35,73.73l0.17-3.5h-1.26c-0.27,0-0.52,0.04-0.86,0.13l-0.15-0.73c0.5,0.13,0.71,0.17,1.01,0.17h1.28
			l0.15-3.44h-1.17c-0.25,0-0.46,0.02-0.8,0.11l-0.15-0.69c0.38,0.1,0.61,0.15,0.88,0.15h1.26l0.17-3.27h-1.42
			c-0.31,0-0.5,0.02-0.86,0.08l-0.17-0.71c0.46,0.15,0.75,0.19,1.03,0.19h1.21c0.54-0.55,0.71-0.71,1.26-1.19
			c0.69,0.48,0.9,0.63,1.57,1.19c0.19,0.15,0.23,0.23,0.23,0.34c0,0.17-0.15,0.29-0.75,0.61l-0.5,10.58h0.06
			c0.52-0.63,0.67-0.8,1.17-1.38c0.63,0.63,0.82,0.84,1.38,1.57c0.04,0.04,0.06,0.1,0.06,0.15c0,0.06-0.08,0.11-0.19,0.11h-18.48
			c-0.44,0-0.86,0.04-1.34,0.17L165,73.52c0.55,0.17,0.9,0.21,1.49,0.21h0.4l-0.27-10.43c-0.02-0.34-0.04-0.57-0.17-1.51
			c0.86,0.4,1.13,0.54,1.99,1.07c0.19-0.17,0.19-0.17,0.92-0.73c0.34-0.27,0.88-0.86,1.19-1.32c1.84,1.21,2.12,1.42,2.12,1.63
			c0,0.15-0.13,0.23-0.31,0.23c-0.1,0-0.29-0.02-0.69-0.1c-1.28,0.46-2.01,0.67-2.98,0.88l0.06,2.79h0.9
			c0.44-0.5,0.59-0.65,1.07-1.13c0.65,0.52,0.86,0.71,1.51,1.3l0.08,0.15l0.02-0.15c0.31-3.04,0.42-4.25,0.42-5.22
			c0-0.23,0-0.31-0.06-0.59c0.54,0.08,0.98,0.13,1.26,0.17c1.47,0.19,1.59,0.21,1.59,0.4c0,0.17-0.17,0.27-0.82,0.48
			c-0.06,0.73-0.06,0.73-0.1,1.63h1.24l1.19-1.26c0.71,0.59,0.94,0.78,1.7,1.42c0.04,0.06,0.08,0.15,0.08,0.17
			c0,0.06-0.08,0.1-0.19,0.1h-4.04c-0.04,0.42-0.04,0.59-0.15,2.28h1.13c0.48-0.48,0.65-0.61,1.15-1.07
			c0.63,0.48,0.84,0.63,1.45,1.15c0.15,0.15,0.19,0.23,0.19,0.29c0,0.17-0.08,0.23-0.63,0.5l-0.38,6.85H180.35z M165.06,79.51
			c2.56-1.4,4.57-3.08,5.78-4.82c0.54,0.23,0.96,0.42,1.21,0.52c1.42,0.59,1.72,0.75,1.72,0.96c0,0.19-0.19,0.29-0.5,0.29
			c-0.17,0-0.38-0.02-0.61-0.04c-1.47,0.98-2.09,1.34-3.31,1.86c-1.4,0.63-2.45,0.96-4.19,1.4L165.06,79.51z M175.76,66.44h-1.36
			v0.25c-0.06,0.44-0.21,0.48-1.49,0.48c-0.46,0-0.65-0.1-0.65-0.36c0-0.04,0.02-0.1,0.04-0.19l-0.17,0.04h-3.37l0.08,3.29h0.84
			c0.46-0.5,0.61-0.67,1.07-1.13c0.61,0.5,0.8,0.69,1.43,1.28l0.02,0.02c0.06-0.88,0.08-1.42,0.08-1.72c0-0.19,0-0.23-0.02-0.46
			c2.33,0.23,2.68,0.31,2.68,0.54c0,0.15-0.15,0.23-0.69,0.42c-0.13,1.28-0.15,1.53-0.21,2.37c-0.04,0.8-0.12,1.61-0.21,2.45h1.53
			L175.76,66.44z M171.91,73.73c0.1-1.17,0.21-2.3,0.27-3.35l-0.17,0.02h-3.14l0.08,3.33H171.91z M176.35,74.96
			c2.95,0.61,3.71,0.78,4.71,1.09c0.96,0.31,1.4,0.61,1.68,1.15c0.17,0.29,0.23,0.57,0.23,0.88c0,0.82-0.44,1.55-0.96,1.55
			c-0.29,0-0.29,0-1.63-1.47c-0.82-0.88-2.62-2.18-4.09-3L176.35,74.96z"/>
		<path class="st96" d="M185.94,64.25c0.52,0.13,1.07,0.19,1.61,0.19h3.6c0.57-0.67,0.73-0.88,1.3-1.53
			c0.92,0.69,1.21,0.92,2.09,1.66c0.08,0.08,0.13,0.15,0.13,0.19c0,0.08-0.08,0.13-0.23,0.13h-6.98c-0.48,0-0.82,0.02-1.38,0.15
			L185.94,64.25z M186.52,61.59c0.5,0.1,0.98,0.17,1.45,0.17h2.58l1.26-1.47c0.86,0.67,1.11,0.88,1.93,1.59
			c0.04,0.06,0.08,0.17,0.08,0.19c0,0.08-0.08,0.13-0.21,0.13h-5.68c-0.52,0-0.75,0.02-1.28,0.1L186.52,61.59z M186.69,66.93
			c0.52,0.11,1.03,0.17,1.44,0.17h2.33c0.65-0.75,0.65-0.75,1.3-1.45c0.84,0.67,1.09,0.88,1.89,1.57c0.08,0.08,0.1,0.15,0.1,0.19
			c0,0.08-0.08,0.13-0.23,0.13h-5.41c-0.42,0-0.71,0.02-1.28,0.13L186.69,66.93z M186.73,69.63c0.57,0.1,1.01,0.17,1.45,0.17h2.16
			c0.54-0.65,0.71-0.84,1.26-1.47c0.84,0.65,1.09,0.86,1.89,1.57c0.08,0.1,0.13,0.15,0.13,0.21c0,0.08-0.08,0.13-0.23,0.13h-5.22
			c-0.44,0-0.73,0.02-1.28,0.1L186.73,69.63z M188.93,79.16c-0.02,0.38-0.25,0.46-1.44,0.46c-0.59,0-0.71-0.06-0.71-0.42
			c0.08-2.41,0.08-2.89,0.08-4.38c0-1.21,0-1.53-0.08-3.41c1.03,0.5,1.34,0.67,2.35,1.21h1.89c0.44-0.54,0.57-0.71,1.01-1.21
			c0.73,0.52,0.94,0.69,1.59,1.21c0.19,0.17,0.25,0.27,0.25,0.38c0,0.17-0.15,0.29-0.67,0.61c0.02,1.3,0.02,2.83,0.06,4.55
			c0,0.25-0.06,0.36-0.27,0.44c-0.19,0.06-0.82,0.15-1.24,0.15c-0.52,0-0.65-0.08-0.65-0.42v-0.36h-2.16V79.16z M188.93,77.53h2.16
			v-4.46h-2.16V77.53z M205.88,76.88c-0.88,0.38-1.47,1.15-1.74,2.28c-0.02,0.13-0.1,0.19-0.23,0.19c-0.11,0-0.44-0.13-0.78-0.29
			c-1.53-0.73-2.74-1.59-3.92-2.72c-1.93,1.61-3.81,2.53-7.06,3.46l-0.08-0.27c2.43-1.24,4.17-2.53,5.99-4.5
			c-1.15-1.55-1.78-2.93-2.28-4.99c-0.71,0.04-0.88,0.06-1.36,0.15l-0.13-0.75c0.63,0.1,1.15,0.17,1.66,0.17h5.03
			c0.48-0.54,0.63-0.69,1.13-1.19c0.88,0.65,1.15,0.84,1.99,1.51c0.21,0.17,0.27,0.27,0.27,0.36c0,0.19-0.23,0.29-0.96,0.5
			c-1.11,2.07-1.8,3.1-2.87,4.29c1.61,0.9,2.95,1.28,5.34,1.55V76.88z M193.33,69.26c1.03-1.07,1.47-1.82,1.8-3.12
			c0.25-0.96,0.42-2.49,0.42-4c0-0.61-0.02-0.94-0.13-1.74c1.11,0.52,1.45,0.69,2.49,1.28h1.97c0.44-0.52,0.59-0.69,1.09-1.22
			c0.71,0.55,0.92,0.73,1.61,1.28c0.17,0.15,0.23,0.25,0.23,0.34c0,0.17-0.15,0.29-0.73,0.59v3.37c0,0.31,0.06,0.34,0.67,0.34
			c0.63,0,0.78-0.04,0.94-0.31c0.21-0.34,0.54-1.3,1.01-2.97l0.23,0.02l-0.08,2.58c0,0.1,0,0.1,0,0.17c0,0.15,0.06,0.21,0.25,0.31
			c0.42,0.17,0.61,0.44,0.61,0.84c0,0.42-0.23,0.78-0.61,0.92c-0.42,0.17-0.98,0.23-2.28,0.23c-1.55,0-2.07-0.04-2.39-0.21
			c-0.31-0.15-0.46-0.44-0.46-0.92c0-0.02,0-0.06,0-0.13c0-0.25,0-0.44,0-0.57c0.02-0.46,0.02-0.75,0.02-0.8v-3.41h-2.26
			c-0.11,2.83-0.34,3.85-1.13,4.96c-0.69,0.9-1.47,1.51-3.12,2.33L193.33,69.26z M196.2,70.03c0.57,1.55,1.4,2.74,2.74,3.92
			c0.86-1.11,1.55-2.39,2.16-3.92H196.2z"/>
		<path class="st96" d="M206.8,64.48c0.59,0.13,1.07,0.19,1.61,0.19h4.17c0.61-0.71,0.8-0.92,1.42-1.59
			c0.96,0.73,1.26,0.94,2.16,1.72c0.08,0.08,0.12,0.15,0.12,0.19c0,0.08-0.08,0.13-0.25,0.13h-7.75c-0.57,0-0.84,0.02-1.36,0.1
			L206.8,64.48z M207.56,67.18c0.46,0.1,0.96,0.15,1.47,0.15h2.79c0.57-0.63,0.73-0.84,1.32-1.47c0.9,0.69,1.17,0.9,2.01,1.61
			c0.06,0.06,0.11,0.13,0.11,0.17c0,0.06-0.11,0.13-0.23,0.13h-6.03c-0.59,0-0.82,0.02-1.3,0.1L207.56,67.18z M207.6,69.95
			c0.54,0.1,0.94,0.15,1.42,0.15h2.79c0.57-0.67,0.75-0.88,1.32-1.51c0.92,0.67,1.19,0.9,2.05,1.63c0.08,0.08,0.1,0.13,0.1,0.19
			s-0.1,0.13-0.25,0.13h-6.01c-0.5,0-0.78,0.02-1.3,0.1L207.6,69.95z M207.62,61.76c0.48,0.13,0.92,0.17,1.4,0.17h2.83
			c0.61-0.71,0.82-0.92,1.45-1.61c0.96,0.71,1.26,0.94,2.2,1.7c0.08,0.1,0.12,0.17,0.12,0.21c0,0.08-0.1,0.15-0.23,0.15h-6.37
			c-0.48,0-0.75,0.02-1.28,0.1L207.62,61.76z M210.03,79.23c0,0.46-0.31,0.59-1.4,0.59c-0.71,0-0.86-0.08-0.88-0.44
			c0.06-1.95,0.08-2.76,0.08-4.23c0-1.42-0.02-2.16-0.1-3.52c1.13,0.52,1.47,0.69,2.53,1.32h2.01c0.48-0.54,0.63-0.71,1.15-1.28
			c0.75,0.55,0.98,0.71,1.68,1.26c0.15,0.13,0.21,0.23,0.21,0.31c0,0.21-0.19,0.4-0.67,0.71c0,2.47,0,2.58,0.08,5.03
			c0,0.23-0.04,0.36-0.19,0.42c-0.23,0.13-0.71,0.21-1.34,0.21c-0.63,0-0.75-0.06-0.77-0.38v-0.82h-2.39V79.23z M210.03,77.97h2.39
			v-4.59h-2.39V77.97z M222.72,67.87c0.69-0.82,0.9-1.07,1.63-1.89c0.94,0.82,1.24,1.07,2.18,1.93c0.08,0.13,0.13,0.19,0.13,0.23
			c0,0.1-0.1,0.17-0.27,0.17h-4.9c0,5.53,0.02,7.71,0.15,10.79c0,0.25-0.06,0.4-0.19,0.48c-0.21,0.13-0.8,0.21-1.55,0.21
			s-0.9-0.06-0.9-0.46c0.1-3.12,0.15-5.66,0.15-9.53c0-0.17,0-0.82-0.02-1.49h-2.26c-0.52,0-0.88,0.04-1.36,0.13l-0.13-0.73
			c0.52,0.13,0.98,0.17,1.49,0.17h2.26c-0.02-5.97-0.02-6.1-0.19-7.1c3.12,0.23,3.48,0.29,3.48,0.61c0,0.19-0.23,0.34-0.9,0.57
			c-0.02,1.95-0.02,1.95-0.02,5.93H222.72z"/>
		<path class="st96" d="M233.28,64.33c0.46-0.46,0.59-0.61,1.05-1.05c0.48,0.4,0.48,0.4,1.38,1.17c0.61-0.48,1.11-1.03,1.72-1.76
			c-0.54-0.48-0.8-0.67-1.36-1.05l0.11-0.17c0.84,0.23,1.17,0.34,1.76,0.57c0.52-0.73,0.61-0.9,0.88-1.51l1.49,0.69
			c0.29,0.13,0.42,0.25,0.42,0.36c0,0.15-0.17,0.23-0.46,0.23c-0.06,0-0.19,0-0.29,0c-0.61,0.59-0.61,0.59-0.86,0.82l0.19,0.11
			c0.61,0.36,0.75,0.54,0.75,1.01c0,0.48-0.27,0.94-0.57,0.94c-0.15,0-0.23-0.06-0.59-0.5c-0.19-0.27-0.38-0.46-0.69-0.78
			c-0.9,0.63-1.32,0.86-2.45,1.3c-0.04,0.04-0.11,0.06-0.23,0.06h-3.29l0.06,1.93h1.09c0.48-0.48,0.63-0.61,1.09-1.05
			c0.65,0.48,0.84,0.65,1.44,1.22c0.04,0.06,0.06,0.1,0.06,0.15c0,0.08-0.08,0.13-0.23,0.13h-3.44l0.06,1.82h10.47l0.1-2.09h-1.15
			c-0.42,0-0.59,0.02-0.92,0.1l-0.15-0.67c0.36,0.08,0.61,0.13,1.03,0.13h1.21l0.1-2.01h-1.32c-0.36,0-0.55,0.02-0.92,0.08
			l-0.15-0.65c0.4,0.1,0.59,0.13,1.07,0.13h1.34l0.1-1.99h-1.4c-0.34,0-0.5,0.02-0.82,0.1l-0.15-0.69c0.36,0.1,0.61,0.15,0.96,0.15
			h1.21c0.52-0.48,0.67-0.63,1.17-1.05c0.71,0.44,0.92,0.59,1.63,1.11c0.13,0.1,0.19,0.19,0.19,0.27c0,0.19-0.15,0.29-0.78,0.57
			l-0.34,6.51h0.02c0.44-0.46,0.59-0.61,1.05-1.05c0.73,0.65,0.96,0.86,1.72,1.61c0.13,0.13,0.17,0.19,0.17,0.27
			c0,0.19-0.31,0.34-0.67,0.34c-0.06,0-0.27-0.02-0.5-0.04c-0.94,0.61-2.05,1.19-2.85,1.51c0.04,0.08,0.06,0.13,0.06,0.17
			c0,0.19-0.17,0.31-0.44,0.31c-0.15,0-0.5-0.04-0.84-0.08c-1.53,0.65-2.07,0.84-3.33,1.19c0.12,0.08,0.19,0.15,0.19,0.23
			c0,0.06-0.04,0.15-0.1,0.17c-0.06,0.04-0.19,0.08-0.38,0.13c-0.06,0-0.17,0.04-0.29,0.08v0.65h4.86c0.71-0.73,0.92-0.94,1.57-1.65
			c0.96,0.73,1.26,0.96,2.24,1.7c0.06,0.1,0.08,0.19,0.08,0.25c0,0.13-0.04,0.15-0.29,0.15h-8.46v2.64c0,0.15,0.02,0.34,0.02,0.63
			c-0.02,0.75-0.19,1.13-0.61,1.4c-0.54,0.34-1.34,0.55-2.07,0.55c-0.29,0-0.36-0.08-0.38-0.38c-0.04-0.94-0.75-1.34-3.16-1.76
			v-0.25c1.36,0.08,2.85,0.17,3.62,0.21c0.04,0,0.08,0,0.11,0c0.02,0,0.04,0,0.04,0c0.19,0,0.25-0.06,0.25-0.21v-2.83h-6.12
			c-0.8,0-1.17,0.02-1.95,0.13l-0.15-0.75c0.82,0.15,1.26,0.19,2.09,0.19h6.12V73.8c0-0.36-0.02-0.63-0.08-1.09
			c1.26,0.13,1.57,0.17,2.09,0.27c0.78-0.52,1.07-0.78,1.89-1.57h-7.44c-0.69,0-0.96,0.02-1.53,0.13l-0.15-0.73
			c0.67,0.13,0.98,0.17,1.68,0.17h7.58c0.46-0.44,0.61-0.59,1.11-0.98c0.9,0.63,1.17,0.82,1.97,1.45c0.31-0.63,0.48-0.96,0.96-2.03
			h-14.35c0.02,0.15,0.02,0.23,0.02,0.36c0,1.49-0.84,2.85-1.76,2.85c-0.5,0-0.88-0.59-0.88-1.36c0-0.29,0.06-0.54,0.21-0.67
			c0.08-0.1,0.08-0.1,0.52-0.34c0.77-0.38,1.13-1.09,1.15-2.26l0.23-0.04c0.25,0.55,0.29,0.65,0.42,1.03h0.21l-0.27-6.62
			c0-0.29-0.02-0.42-0.13-1.28c0.9,0.36,1.17,0.5,2.05,0.98c0.11-0.06,0.17-0.1,0.23-0.15c1.01-0.65,1.51-1.07,1.86-1.57
			c1.4,1.05,1.78,1.38,1.78,1.55c0,0.1-0.1,0.19-0.25,0.19c-0.08,0-0.38-0.04-0.67-0.11c-1.61,0.44-1.61,0.44-2.85,0.67l0.06,1.7
			H233.28z M236.09,65.4c0.71,0.19,1.05,0.29,1.74,0.59c0.44-0.52,0.67-0.82,0.77-1.03c0.08-0.17,0.08-0.19,0.17-0.25
			c0.5,0.21,1.13,0.52,1.49,0.73c0.21,0.13,0.29,0.21,0.29,0.31c0,0.13-0.21,0.21-0.54,0.21c-0.04,0-0.15,0-0.23-0.02
			c-0.29,0.31-0.4,0.4-0.67,0.65c0.86,0.5,1.01,0.69,1.01,1.24c0,0.5-0.27,0.92-0.59,0.92c-0.17,0-0.31-0.13-0.52-0.44
			c-0.23-0.34-0.46-0.63-0.86-1.05c-1.05,0.63-1.44,0.8-3.08,1.36l-0.11-0.17c1.15-0.75,1.53-1.07,2.39-1.93
			c-0.55-0.46-0.8-0.63-1.36-0.96L236.09,65.4z"/>
		<path class="st96" d="M249.31,79.58c1.47-1.34,2.56-2.58,3.44-3.9c0.57-0.86,0.96-1.59,1.15-2.12c2.74,1.07,2.91,1.15,2.91,1.38
			c0,0.08-0.06,0.17-0.13,0.21c-0.08,0.04-0.38,0.08-0.9,0.08c-0.88,1.03-1.86,1.89-3.12,2.74c-0.94,0.65-1.24,0.82-3.21,1.78
			L249.31,79.58z M257.59,72.54c-1.65,0.19-1.72,0.21-4.08,0.5c-1.15,0.15-1.15,0.15-1.93,0.21c-0.17,0.71-0.27,0.9-0.44,0.9
			c-0.08,0-0.21-0.06-0.25-0.13c-0.1-0.19-0.34-1.19-0.67-3c0.86,0.08,1.45,0.1,2.24,0.1c0.23,0,0.88,0,1.86-0.02
			c0.54,0,1.36,0,2.45,0c2.03-1.91,4.25-4.55,5.43-6.43c0.61,0.29,1.07,0.52,1.38,0.65c1.36,0.61,1.65,0.8,1.65,1.05
			c0,0.17-0.19,0.27-0.5,0.27c-0.13,0-0.31-0.02-0.67-0.06c-1.61,1.4-3.12,2.49-6.26,4.5c1.65,0,4.59-0.1,6.79-0.25
			c-0.57-0.75-0.9-1.11-1.78-1.89l0.17-0.17c1.72,0.63,2.7,1.09,3.6,1.7c1.01,0.69,1.3,1.09,1.3,1.76c0,0.88-0.59,1.86-1.13,1.86
			c-0.15,0-0.31-0.1-0.46-0.29c-0.13-0.17-0.13-0.17-0.65-1.19c-0.19-0.42-0.36-0.71-0.63-1.13c-1.36,0.25-3.27,0.52-5.11,0.75v3.92
			c0,0.96,0,1.17,0.06,3.48c0,0.48-0.19,0.57-1.24,0.57c-0.21,0-0.42,0.02-0.63,0.02c-0.04,0-0.08,0-0.11,0
			c-0.4,0-0.5-0.08-0.5-0.38v-0.04c0.06-1.28,0.1-2.56,0.1-3.69V72.54z M258.68,64.04c1.24,0.42,1.4,0.5,1.4,0.71
			c0,0.19-0.19,0.29-0.5,0.29c0,0-0.04,0-0.08,0c-0.08,0-0.23-0.02-0.4-0.02c-0.4,0.29-0.4,0.29-1.59,1.19
			c-0.25,0.21-0.5,0.38-1.28,0.86c0.82,0.44,1.13,0.82,1.13,1.45c0,0.86-0.57,1.74-1.13,1.74c-0.23,0-0.34-0.13-0.69-0.75
			c-0.86-1.49-1.68-2.35-3.25-3.46l0.15-0.17c1.44,0.34,2.26,0.59,2.99,0.86c0.69-1.13,0.8-1.32,1.32-2.6
			c-1.84,0.15-3.46,0.21-6.37,0.23l-0.04-0.27c3.41-0.44,5.93-0.92,9.18-1.84c2.03-0.57,3.1-0.96,4-1.49
			c0.52,0.36,0.94,0.65,1.19,0.82c1.3,0.84,1.53,1.03,1.53,1.28c0,0.11-0.15,0.21-0.31,0.21c-0.19,0-0.52-0.08-0.9-0.21
			c-2.22,0.55-3.77,0.8-6.54,1.09L258.68,64.04z M261.15,73.65c2.01,0.73,3.06,1.17,3.87,1.66c1.17,0.69,1.68,1.34,1.68,2.12
			c0,0.96-0.63,1.99-1.21,1.99c-0.21,0-0.34-0.13-0.67-0.71c-1.19-2.2-2.09-3.37-3.79-4.88L261.15,73.65z"/>
	</g>
</g>
</svg>
