<?xml version="1.0" encoding="UTF-8" standalone="no"?>
<!-- Created with Inkscape (http://www.inkscape.org/) -->

<svg
   xmlns:dc="http://purl.org/dc/elements/1.1/"
   xmlns:cc="http://creativecommons.org/ns#"
   xmlns:rdf="http://www.w3.org/1999/02/22-rdf-syntax-ns#"
   xmlns:svg="http://www.w3.org/2000/svg"
   xmlns="http://www.w3.org/2000/svg"
   xmlns:sodipodi="http://sodipodi.sourceforge.net/DTD/sodipodi-0.dtd"
   xmlns:inkscape="http://www.inkscape.org/namespaces/inkscape"
   width="50mm"
   height="50mm"
   viewBox="0 0 50 50"
   version="1.1"
   id="svg4740"
   inkscape:version="0.92.4 5da689c313, 2019-01-14"
   sodipodi:docname="PhoneTitle.svg">
  <defs
     id="defs4734">
    <clipPath
       clipPathUnits="userSpaceOnUse"
       id="clipPath40">
      <path
         d="M 0,2436 H 1125 V 0 H 0 Z"
         id="path38"
         inkscape:connector-curvature="0" />
    </clipPath>
  </defs>
  <sodipodi:namedview
     id="base"
     pagecolor="#ffffff"
     bordercolor="#666666"
     borderopacity="1.0"
     inkscape:pageopacity="0.0"
     inkscape:pageshadow="2"
     inkscape:zoom="1.979899"
     inkscape:cx="98.711053"
     inkscape:cy="80.016853"
     inkscape:document-units="mm"
     inkscape:current-layer="layer1"
     showgrid="false"
     inkscape:window-width="1366"
     inkscape:window-height="712"
     inkscape:window-x="0"
     inkscape:window-y="25"
     inkscape:window-maximized="1" />
  <metadata
     id="metadata4737">
    <rdf:RDF>
      <cc:Work
         rdf:about="">
        <dc:format>image/svg+xml</dc:format>
        <dc:type
           rdf:resource="http://purl.org/dc/dcmitype/StillImage" />
        <dc:title></dc:title>
      </cc:Work>
    </rdf:RDF>
  </metadata>
  <g
     inkscape:label="Layer 1"
     inkscape:groupmode="layer"
     id="layer1"
     transform="translate(0,-247)">
    <g
       id="g5379"
       transform="matrix(0.20781585,0,0,0.20781585,1.3730609,243.53633)">
      <g
         id="g34"
         transform="matrix(0.35277777,0,0,-0.35277777,-92.084593,255.68501)">
        <g
           clip-path="url(#clipPath40)"
           id="g36">
          <g
             transform="translate(347.8809,620.1738)"
             id="g42">
            <path
               inkscape:connector-curvature="0"
               id="path44"
               style="fill:#5e5e5e;fill-opacity:1;fill-rule:nonzero;stroke:none"
               d="m 0,0 c 10.756,-3.524 14.731,-6.326 14.731,-10.119 0,-3.525 -2.801,-6.597 -5.966,-6.597 -0.63,0 -1.355,0.271 -1.716,0.632 -0.633,0.633 -0.633,0.633 -1.627,4.428 -1.174,4.156 -2.44,6.596 -5.871,11.023 z m -4.425,-24.306 c 0.63,-8.674 1.624,-13.826 3.795,-19.609 4.245,6.869 6.413,11.658 7.59,16.537 12.377,-4.247 12.649,-4.338 12.649,-5.512 0,-0.904 -1.174,-1.265 -4.248,-1.355 -4.969,-8.314 -7.678,-12.38 -12.107,-17.621 2.802,-4.337 5.15,-6.596 11.477,-11.385 2.982,5.421 4.065,7.68 8.04,16.174 l 0.905,-0.271 -2.44,-14.91 c -0.361,-2.348 -0.361,-2.348 -0.361,-2.891 0,-0.812 0.089,-0.904 1.535,-2.71 0.905,-0.904 1.356,-2.169 1.356,-3.344 0,-2.711 -2.078,-4.879 -4.699,-4.879 -5.783,0 -15.091,7.41 -22.229,17.71 -7.859,-7.048 -14.275,-10.843 -25.661,-14.999 l -0.541,0.904 c 9.305,6.324 16.083,12.469 22.588,20.24 -3.613,7.5 -5.601,15.541 -6.686,27.921 l -17.077,-0.09 v -13.736 c 5.783,0.904 8.584,1.446 14.998,2.801 l 0.363,-0.994 c -6.687,-3.432 -9.67,-4.789 -15.361,-7.137 v -12.289 c 0,-3.072 0,-3.072 0.089,-12.29 -0.089,-5.33 -1.897,-7.318 -7.498,-8.583 -1.627,-0.272 -3.254,-0.543 -4.068,-0.543 -0.813,0 -1.083,0.271 -1.174,1.537 -0.272,2.259 -1.174,4.066 -2.621,5.06 -1.263,0.814 -1.263,0.814 -9.217,3.343 l 0.091,1.084 c 5.331,-0.271 7.499,-0.361 13.282,-0.542 1.266,0 1.538,0.181 1.538,1.446 v 18.252 c -5.422,-1.897 -9.309,-3.252 -11.566,-4.066 -0.364,-2.62 -0.905,-3.614 -1.807,-3.614 -0.994,0 -1.175,0.633 -4.068,13.463 5.242,0.181 10.392,0.633 17.441,1.627 v 15.181 H -50.42 c -3.251,0 -5.059,-0.181 -7.226,-0.633 l -0.544,3.343 c 2.168,-0.452 4.88,-0.723 7.681,-0.723 h 10.392 v 13.102 c -4.881,-1.085 -8.404,-1.626 -17.26,-2.439 l -0.269,0.994 c 10.388,3.524 15.542,5.692 21.866,9.398 4.608,2.619 6.685,3.975 9.126,6.233 9.397,-6.324 10.3,-6.957 10.3,-7.77 0,-0.633 -0.631,-1.085 -1.356,-1.085 -0.902,0 -1.987,0.181 -3.162,0.452 -4.517,-1.716 -6.324,-2.349 -9.667,-3.343 v -15.451 h 16.985 c -0.449,5.15 -0.63,10.029 -0.721,15.722 -0.092,5.331 -0.181,7.049 -0.722,10.301 2.62,-0.362 4.789,-0.542 6.052,-0.633 5.602,-0.541 7.321,-1.084 7.321,-2.078 0,-0.813 -0.814,-1.265 -3.254,-1.988 -0.091,-4.518 -0.091,-7.137 -0.091,-8.764 0,-4.066 0.18,-9.218 0.364,-12.47 H 7.502 c 2.801,3.252 3.614,4.156 6.505,7.138 4.428,-3.253 5.782,-4.337 9.849,-7.771 0.362,-0.361 0.542,-0.541 0.542,-0.813 0,-0.271 -0.361,-0.542 -0.902,-0.542 z" />
          </g>
          <path
             inkscape:connector-curvature="0"
             id="path46"
             style="fill:#5e5e5e;fill-opacity:1;fill-rule:nonzero;stroke:none"
             d="m 432.442,555.928 h 16.086 v 55.029 h -16.086 z m 15.633,56.926 c 2.079,2.531 2.71,3.254 4.97,5.603 3.434,-2.439 4.428,-3.162 7.41,-5.603 0.814,-0.722 1.174,-1.264 1.174,-1.715 0,-0.814 -0.814,-1.447 -3.254,-2.531 0,-5.603 -0.089,-17.892 -0.089,-22.228 0,-14.638 0.181,-28.825 0.542,-38.764 -0.089,-1.266 -0.453,-1.807 -1.446,-2.168 -0.814,-0.272 -3.976,-0.543 -5.964,-0.543 -2.257,0 -2.801,0.361 -2.89,1.898 v 7.228 h -16.086 v -6.687 c 0,-1.355 -0.361,-1.988 -1.355,-2.259 -0.722,-0.27 -3.614,-0.541 -5.691,-0.541 -2.621,0 -3.163,0.361 -3.163,2.259 0.362,12.74 0.451,16.806 0.451,38.403 0,18.974 -0.089,25.21 -0.451,33.523 5.059,-2.35 6.597,-3.073 11.294,-5.875 z m -48.704,-10.39 c -1.716,-8.133 -4.156,-17.439 -6.957,-26.746 4.067,-1.447 4.881,-1.808 8.495,-3.525 3.612,9.488 5.42,17.169 6.957,30.271 z m 8.224,1.898 c 2.079,2.258 2.71,2.891 4.789,5.15 3.254,-2.441 4.156,-3.162 7.049,-5.603 0.632,-0.541 0.902,-0.993 0.902,-1.355 0,-0.813 -0.722,-1.356 -2.981,-2.26 -2.169,-14.547 -4.61,-23.402 -9.038,-32.077 7.141,-4.518 8.949,-6.686 8.949,-10.932 0,-4.519 -1.989,-8.134 -4.429,-8.134 -0.905,0 -1.538,0.543 -2.168,1.898 -2.352,4.97 -3.976,7.771 -6.235,10.662 -3.254,-4.607 -7.411,-8.855 -12.288,-12.469 -3.346,-2.53 -6.236,-4.066 -12.56,-6.867 l -0.725,0.994 c 6.507,5.151 8.584,7.229 11.927,11.385 3.254,4.066 5.694,7.951 8.224,13.102 -3.072,3.163 -3.704,3.796 -6.958,6.415 -0.722,-2.168 -0.903,-2.801 -1.899,-5.691 -0.542,-1.176 -1.175,-1.537 -3.071,-1.537 -1.354,0 -4.517,0.271 -5.422,0.451 -0.813,0.182 -1.354,0.723 -1.354,1.357 0,0.36 0.089,0.723 0.271,1.264 4.607,13.103 6.686,20.511 9.307,32.349 h -3.254 c -2.621,0 -4.878,-0.182 -6.866,-0.543 l -0.544,3.253 c 2.893,-0.632 4.789,-0.812 7.682,-0.812 h 3.343 c 1.899,9.216 2.62,14.185 3.162,21.144 10.933,-1.537 11.205,-1.537 12.29,-1.989 0.631,-0.271 0.903,-0.632 0.903,-1.084 0,-0.904 -0.814,-1.355 -3.615,-1.988 -0.813,-4.608 -0.813,-4.608 -3.254,-16.083 z" />
          <path
             inkscape:connector-curvature="0"
             id="path48"
             style="fill:#5e5e5e;fill-opacity:1;fill-rule:nonzero;stroke:none"
             d="m 503.271,569.754 h 15.544 v 20.06 h -15.544 z m 0,-8.133 c -0.088,-1.265 -0.36,-1.717 -1.263,-2.078 -0.724,-0.181 -3.523,-0.451 -5.602,-0.451 -2.26,0 -2.982,0.541 -2.982,2.168 v 0.723 c 0.361,8.042 0.453,12.017 0.453,17.71 0,8.855 -0.092,13.193 -0.453,17.078 5.15,-2.35 5.15,-2.35 10.753,-5.06 h 13.734 c 2.079,2.35 2.801,3.073 4.97,5.331 3.073,-2.258 4.066,-2.981 6.957,-5.331 0.813,-0.723 1.174,-1.085 1.174,-1.446 0,-0.723 -0.903,-1.536 -2.801,-2.62 v -4.066 c 0,-7.952 0.183,-16.265 0.363,-19.788 0,-1.266 -0.271,-1.898 -1.085,-2.17 -0.994,-0.451 -3.523,-0.722 -6.144,-0.722 -2.079,0 -2.53,0.361 -2.53,2.078 v 4.879 h -15.544 z m -14.817,44.186 c 3.796,-0.724 5.423,-0.904 7.952,-0.904 h 21.596 c 2.621,3.434 3.523,4.338 6.325,7.41 4.155,-3.162 5.33,-4.156 9.217,-7.59 0.541,-0.361 0.722,-0.633 0.722,-0.994 0,-0.361 -0.453,-0.724 -0.903,-0.724 h -37.318 c -2.441,0 -3.976,-0.18 -6.689,-0.631 z m -3.433,-35.331 c 0,-1.535 0.091,-11.837 0.18,-24.577 -0.089,-2.53 -1.266,-2.982 -7.68,-2.982 -2.532,0 -3.253,0.452 -3.253,2.078 v 0.453 c 0.361,7.861 0.721,35.6 0.721,50.42 0,12.017 -0.179,22.138 -0.541,28.824 5.151,-2.259 6.688,-3.071 11.746,-5.692 h 50.06 l 5.422,5.783 c 3.434,-2.531 4.516,-3.345 7.859,-5.964 0.814,-0.723 1.177,-1.175 1.177,-1.627 0,-0.813 -0.904,-1.627 -3.253,-2.891 V 578.79 c 0,-2.439 0,-5.513 0.089,-9.126 0.091,-7.681 0.091,-7.681 0.091,-16.537 -0.091,-5.601 -1.626,-7.408 -7.41,-9.035 -1.807,-0.542 -5.15,-1.085 -6.416,-1.085 -0.994,0 -1.263,0.271 -1.444,1.718 -0.271,2.348 -1.177,4.066 -2.712,5.24 -1.716,1.266 -3.523,1.807 -11.474,3.705 l 0.088,0.994 c 4.249,-0.271 4.249,-0.271 16.989,-0.814 h 0.541 c 0.994,0 1.447,0.362 1.447,1.266 v 61.986 h -52.227 z" />
          <g
             transform="translate(475.4951,414.5396)"
             id="g50">
            <path
               inkscape:connector-curvature="0"
               id="path52"
               style="fill:#5e5e5e;fill-opacity:1;fill-rule:nonzero;stroke:none"
               d="m 0,0 c 19.976,-4.688 28.14,-9.726 28.14,-17.715 0,-5.905 -4.173,-11.812 -8.164,-11.812 -2.605,0 -3.304,0.87 -6.08,7.295 -4.167,9.032 -7.47,13.723 -14.765,21.018 z m -25.53,-3.125 c 18.929,-8.165 26.918,-14.763 26.918,-22.058 0,-6.254 -5.556,-13.549 -10.246,-13.549 -1.041,0 -2.257,0.522 -2.952,1.39 -0.693,1.043 -0.693,1.043 -2.433,7.295 -2.78,10.075 -5.903,16.674 -12.332,25.706 z m 7.989,34.912 H -48.808 V 8.859 h 31.267 z m 0,25.531 H -48.808 V 35.435 h 31.267 z m 0,25.185 H -48.808 V 60.965 h 31.267 z M -49.673,-4.861 c 13.374,-9.726 21.187,-19.455 21.187,-26.576 0,-6.599 -7.119,-14.938 -12.68,-14.938 -3.298,0 -4.861,2.607 -4.861,8.512 -0.176,14.07 -1.388,21.712 -5.038,32.305 z m 91.358,13.72 9.899,10.769 c 6.777,-4.69 8.687,-6.078 15.113,-11.116 1.564,-1.217 2.086,-1.91 2.086,-2.78 0,-1.735 -1.563,-2.952 -6.429,-5.382 -1.565,-17.891 -3.299,-30.571 -5.556,-39.256 -2.78,-11.29 -7.472,-16.847 -16.33,-19.799 -3.122,-1.043 -8.683,-2.084 -11.463,-2.084 -2.429,0 -2.429,0 -3.475,4.862 -0.864,4.517 -3.991,7.642 -9.551,9.726 -3.993,1.563 -6.426,2.26 -15.802,5.037 l 0.346,2.084 c 8.683,-0.867 22.404,-1.736 27.964,-1.736 5.208,0 7.295,1.216 8.683,5.211 3.127,7.815 5.037,20.842 6.254,40.816 H -48.808 V 1.564 c -0.171,-1.388 -0.346,-2.084 -1.216,-2.778 -1.559,-1.043 -6.079,-1.737 -11.463,-1.737 -6.249,0 -7.295,0.52 -7.466,3.821 0.869,16.674 1.04,29.18 1.04,56.797 0,18.584 -0.171,27.094 -1.04,38.73 9.552,-3.821 12.503,-5.209 22.056,-10.246 h 74.338 c 5.561,5.905 7.295,7.642 12.68,13.2 8.341,-6.079 10.945,-7.989 19.28,-14.243 0.695,-0.694 1.041,-1.214 1.041,-1.564 0,-0.693 -0.693,-1.041 -1.91,-1.041 H 1.388 V 60.965 h 19.457 c 5.209,5.732 6.772,7.642 11.81,13.027 8.159,-5.905 10.593,-7.642 18.582,-13.894 0.694,-0.697 1.045,-1.217 1.045,-1.564 0,-0.694 -0.869,-1.216 -2.086,-1.216 H 1.388 V 35.435 h 18.758 c 5.384,6.078 6.949,7.989 12.162,13.72 7.989,-6.252 10.247,-8.162 18.064,-14.59 0.694,-0.867 1.041,-1.216 1.041,-1.737 0,-0.52 -0.694,-1.041 -1.739,-1.041 H 1.388 V 8.859 Z M -65.655,-6.772 c 1.91,-7.122 2.433,-10.596 2.433,-16.154 0,-8.685 -1.911,-16.327 -5.214,-21.362 -3.468,-5.038 -7.989,-7.992 -12.328,-7.992 -5.384,0 -9.381,5.385 -9.381,12.854 0,4.341 1.217,6.254 5.384,8.685 11.292,6.425 14.938,11.463 17.371,24.142 z" />
          </g>
          <path
             inkscape:connector-curvature="0"
             id="path54"
             style="fill:#5e5e5e;fill-opacity:1;fill-rule:nonzero;stroke:none"
             d="m 695.533,432.777 h -20.498 v -25.879 h 20.498 z m 0,28.487 h -20.498 v -24.839 h 20.498 z m -38.039,-28.487 h -19.105 v -25.879 h 19.105 z m 0,28.487 h -19.105 v -24.839 h 19.105 z m 17.541,-64.265 V 375.46 360.35 c 0,-3.822 -2.081,-4.516 -11.634,-4.516 -5.214,0 -6.078,0.521 -6.078,3.475 0,3.647 0,16.151 0.171,37.69 v 6.251 h -19.105 v -45.505 c 0,-3.995 -1.388,-4.517 -11.986,-4.517 -5.555,0 -6.425,0.522 -6.425,3.647 v 0.174 c 0.694,34.911 0.694,35.955 0.694,47.591 0,29.875 -0.348,59.575 -0.519,67.044 H 597.919 V 458.31 c 13.029,-6.948 20.842,-16.327 20.842,-24.836 0,-7.122 -4.862,-14.244 -9.553,-14.244 -1.91,0 -2.951,1.738 -3.474,6.949 -1.734,16.151 -3.127,20.842 -7.815,28.657 v -5.038 c 0,-18.584 0.171,-68.953 0.347,-91.532 0,-4.168 -1.911,-5.038 -11.463,-5.038 -6.254,0 -7.124,0.347 -7.124,3.821 1.046,30.223 1.046,30.223 1.392,54.887 L 581.589,430 c -7.119,-16.328 -11.985,-23.97 -24.143,-36.649 l -1.563,1.216 c 11.292,22.059 18.587,46.202 23.278,77.117 h -9.904 c -3.475,0 -5.385,-0.174 -8.855,-1.041 l -1.045,6.078 c 3.997,-1.043 6.425,-1.39 9.729,-1.39 h 11.287 v 17.371 c 0,9.379 -0.172,13.2 -1.041,21.535 19.977,-2.083 21.712,-2.257 23.798,-2.951 1.388,-0.522 2.087,-1.216 2.087,-2.086 0,-1.561 -1.911,-2.604 -7.127,-4.168 v -29.701 h 3.306 c 3.645,5.211 4.685,6.775 8.506,12.16 5.732,-5.732 7.124,-7.122 12.162,-13.027 8.16,-3.994 10.071,-4.864 18.064,-9.552 h 24.49 c -1.911,1.736 -1.911,1.736 -4.867,6.425 -3.474,5.731 -10.07,11.986 -19.623,19.105 l 0.518,1.563 c 17.195,-3.647 23.625,-5.384 30.05,-8.162 3.646,3.474 5.038,5.038 14.414,16.847 h -52.629 c -4.685,0 -7.29,-0.346 -11.116,-1.216 l -1.212,6.254 c 4.515,-1.043 7.643,-1.39 12.158,-1.39 h 52.628 c 4.515,4.168 5.903,5.385 10.247,9.379 8.165,-6.078 10.593,-7.989 18.235,-14.243 1.739,-1.39 2.433,-2.258 2.433,-3.301 0,-2.084 -2.433,-2.951 -7.47,-2.951 h -2.776 c -15.807,-7.642 -20.322,-9.553 -30.221,-12.853 1.911,-2.431 2.604,-3.994 2.604,-6.428 0,-3.994 -1.046,-6.599 -3.649,-9.029 h 19.804 c 3.82,4.514 5.032,5.904 9.205,10.246 5.902,-3.994 7.641,-5.211 13.026,-9.379 1.735,-1.564 2.604,-2.431 2.604,-3.301 0,-1.737 -1.563,-2.951 -5.731,-5.035 v -47.418 c 0,-27.096 0,-27.096 0.171,-39.253 -0.171,-7.295 -1.734,-10.596 -6.425,-13.2 -3.475,-1.738 -8.683,-3.128 -12.68,-3.128 -2.428,0 -2.951,0.521 -3.128,2.778 -0.346,4.691 -1.215,7.296 -2.774,9.382 -1.911,2.084 -3.475,2.951 -12.162,5.905 l 0.176,2.084 c 6.772,-0.697 9.206,-0.87 16.672,-1.044 2.086,0 2.433,0.347 2.433,2.258 v 27.443 h -20.498 z" />
          <g
             transform="translate(849.0469,449.2783)"
             id="g56">
            <path
               inkscape:connector-curvature="0"
               id="path58"
               style="fill:#5e5e5e;fill-opacity:1;fill-rule:nonzero;stroke:none"
               d="M 0,0 14.067,16.847 C 23.62,9.206 26.571,6.948 35.43,-0.694 c 0.694,-0.87 1.041,-1.39 1.041,-1.737 0,-0.696 -0.866,-1.217 -2.082,-1.217 H -30.92 V -83.024 H 9.206 c 6.425,7.991 8.336,10.249 14.761,17.717 9.899,-7.815 12.85,-10.248 22.232,-18.757 0.523,-0.697 0.869,-1.217 0.869,-1.564 0,-0.694 -0.693,-1.043 -1.739,-1.043 H -99.697 c -5.908,0 -9.553,-0.348 -13.726,-1.215 l -1.388,6.599 c 5.385,-1.387 9.035,-1.737 15.114,-1.737 h 47.761 V 37.689 c 0,11.466 -0.346,17.197 -1.387,25.013 6.25,-0.694 10.94,-1.217 13.891,-1.564 12.856,-1.39 16.677,-2.43 16.677,-4.688 0,-1.737 -2.258,-2.954 -8.165,-4.691 V 0 Z" />
          </g>
          <g
             transform="translate(446.1191,298.377)"
             id="g60">
            <path
               inkscape:connector-curvature="0"
               id="path62"
               style="fill:#5e5e5e;fill-opacity:1;fill-rule:nonzero;stroke:none"
               d="m 0,0 c 11.294,-6.326 16.535,-11.566 16.535,-16.445 0,-4.158 -3.254,-8.314 -6.416,-8.314 -1.806,0 -2.44,0.904 -3.07,4.337 -1.358,7.229 -3.435,12.741 -7.591,19.789 z m 23.224,13.191 c 2.529,2.621 3.341,3.434 5.782,5.784 3.343,-2.53 4.337,-3.253 7.318,-5.784 0.814,-0.721 1.175,-1.264 1.175,-1.716 0,-0.813 -0.633,-1.265 -3.343,-2.53 -0.544,-20.783 -1.086,-29.005 -2.621,-39.757 -1.898,-13.464 -4.247,-17.982 -10.303,-19.7 -1.535,-0.451 -5.057,-0.993 -6.413,-0.993 -0.994,0 -1.265,0.362 -1.265,1.627 -0.273,4.969 -3.795,7.409 -14.187,9.668 l 0.18,1.174 c 11.566,-0.813 12.199,-0.813 17.261,-0.813 2.168,0 2.709,0.542 3.522,3.434 0.994,3.795 2.35,12.921 2.802,19.878 0.633,8.584 0.994,16.808 0.994,27.831 H 4.697 C 0.181,2.62 -4.156,-3.344 -10.392,-9.398 l -0.902,0.542 c 5.963,11.385 10.752,28.554 11.113,39.939 11.927,-2.53 14.729,-3.344 14.729,-4.518 0,-0.904 -0.902,-1.265 -4.337,-1.988 -1.627,-5.06 -2.532,-7.32 -4.52,-11.386 z M -33.612,-34.88 h 12.56 v 23.855 h -12.56 z m 12.559,46.174 h -12.56 V -9.127 h 12.56 z m -0.813,1.897 c 2.168,2.26 2.801,2.892 5.058,5.242 3.254,-2.169 4.157,-2.801 7.138,-5.242 0.725,-0.631 0.994,-0.993 0.994,-1.444 0,-0.634 -0.542,-1.085 -2.89,-2.441 V -1.446 c 0,-24.036 0,-31.084 0.18,-39.397 0,-1.988 -1.175,-2.439 -6.235,-2.439 -2.982,0 -3.343,0.18 -3.432,1.625 v 4.88 h -12.559 v -6.868 c 0,-2.168 -0.906,-2.529 -6.236,-2.529 -3.163,0 -3.707,0.271 -3.707,1.808 0.453,16.355 0.544,20.511 0.544,31.624 0,14.187 -0.179,24.217 -0.544,31.355 4.61,-2.077 5.964,-2.801 10.032,-5.422 h 0.632 c 1.627,6.777 2.26,11.747 2.26,17.712 2.801,-0.633 4.97,-1.085 6.413,-1.357 5.875,-1.174 7.682,-1.897 7.682,-2.891 0,-0.904 -1.085,-1.355 -4.247,-1.807 -4.518,-6.505 -6.053,-8.584 -8.765,-11.657 z" />
          </g>
          <g
             transform="translate(553.9922,293.9487)"
             id="g64">
            <path
               inkscape:connector-curvature="0"
               id="path66"
               style="fill:#5e5e5e;fill-opacity:1;fill-rule:nonzero;stroke:none"
               d="m 0,0 c 7.771,-6.416 12.74,-11.656 15.723,-16.536 1.898,-3.162 2.981,-6.145 2.981,-8.223 0,-1.897 -0.994,-4.789 -2.349,-7.047 -1.174,-1.808 -2.982,-3.072 -4.608,-3.072 -0.634,0 -1.267,0.361 -1.627,0.813 -0.45,0.722 -0.542,0.994 -0.994,3.976 -0.633,4.517 -2.438,12.017 -3.884,16.174 -1.355,4.066 -2.713,7.138 -5.964,13.373 z m -4.97,-22.318 c 0,-0.994 0,-4.429 0.092,-9.127 0,-1.265 0.089,-3.524 0.089,-5.964 0,-4.246 -0.722,-5.873 -3.162,-7.318 -2.26,-1.446 -5.783,-2.35 -9.036,-2.35 -1.264,0 -1.356,0.09 -1.627,1.988 -0.181,2.168 -1.264,3.795 -3.252,4.879 -1.626,0.994 -3.706,1.717 -9.398,3.344 l 0.089,1.174 c 9.218,-0.723 9.578,-0.723 14.64,-0.903 1.446,0.09 1.807,0.361 1.807,1.626 v 49.787 h -9.939 C -28.823,8.132 -33.07,3.252 -40.12,-2.53 l -0.722,0.542 c 4.97,8.765 7.591,15 10.211,23.674 1.808,5.964 2.439,9.036 2.802,14.006 2.801,-0.543 5.511,-1.084 6.865,-1.355 7.318,-1.356 8.857,-1.898 8.857,-2.801 0,-0.904 -1.355,-1.447 -4.789,-1.988 -2.712,-5.965 -4.068,-8.494 -6.596,-12.832 h 28.01 c 1.898,2.531 2.531,3.344 4.519,5.783 4.609,-3.343 6.052,-4.427 10.3,-8.132 0.541,-0.633 0.722,-0.993 0.722,-1.446 0,-1.174 -1.174,-1.535 -6.052,-1.898 C 8.765,6.777 6.958,5.512 2.079,2.711 L 1.446,3.343 C 3.704,8.132 4.337,9.849 5.694,14.818 H -4.97 Z m -36.052,-13.464 c 4.065,8.675 6.052,14.367 7.952,22.499 1.446,5.964 1.895,9.127 2.076,14.367 13.465,-2.801 13.737,-2.891 13.737,-3.885 0,-0.723 -0.994,-1.175 -3.975,-1.898 -2.713,-8.222 -4.429,-12.017 -7.411,-17.168 -3.345,-5.693 -6.143,-9.216 -11.477,-14.548 z m -25.392,24.577 c 4.518,7.5 8.043,15.181 12.018,26.656 3.254,9.036 4.609,14.638 5.151,20.421 14.727,-3.072 14.819,-3.072 14.819,-4.336 0,-0.814 -0.994,-1.356 -3.975,-1.898 -3.976,-9.578 -6.869,-15.451 -11.117,-21.867 6.056,-0.904 7.141,-1.174 7.141,-2.168 0,-0.724 -0.905,-1.267 -3.073,-1.988 v -22.591 l 0.092,-26.113 c 0,-1.265 -0.364,-1.718 -1.447,-2.078 -0.994,-0.271 -3.706,-0.543 -5.783,-0.543 -2.44,0 -2.981,0.362 -2.981,2.26 0.179,5.33 0.179,5.33 0.541,24.939 V -0.18 c -3.615,-4.79 -5.874,-7.32 -10.481,-11.747 z" />
          </g>
        </g>
      </g>
      <text
         id="text70"
         style="font-variant:normal;font-weight:bold;font-stretch:normal;font-size:15.41476631px;font-family:'YuMincho Demibold';-inkscape-font-specification:YuMin-Demibold;writing-mode:lr-tb;fill:#5e5e5e;fill-opacity:1;fill-rule:nonzero;stroke:none;stroke-width:0.35277775"
         x="116.67303"
         y="162.7291">
        <tspan
           id="tspan68"
           sodipodi:role="line"
           y="162.7291"
           x="116.67303 125.76773 136.83553 152.37361 162.51654 167.64966 178.71745 187.81216 192.94528 201.96292 215.38919 228.2451"
           style="stroke-width:0.35277775">SAME AS YOU</tspan>
      </text>
      <text
         id="text74"
         style="font-variant:normal;font-weight:bold;font-stretch:normal;font-size:37.11621094px;font-family:'Hiragino Mincho ProN W6';-inkscape-font-specification:HiraMinProN-W6;writing-mode:tb-rl;fill:#5e5e5e;fill-opacity:1;fill-rule:nonzero;stroke:none;stroke-width:0.35277775"
         x="12.639051"
         y="110.95553">
        <tspan
           id="tspan72"
           sodipodi:role="line"
           y="110.95553 148.07175 185.18796 222.30414"
           x="12.639051"
           style="stroke-width:0.35277775">2020</tspan>
      </text>
    </g>
  </g>
</svg>
