<?xml version="1.0" encoding="UTF-8" standalone="no"?>
<!-- Created with Inkscape (http://www.inkscape.org/) -->

<svg
   xmlns:dc="http://purl.org/dc/elements/1.1/"
   xmlns:cc="http://creativecommons.org/ns#"
   xmlns:rdf="http://www.w3.org/1999/02/22-rdf-syntax-ns#"
   xmlns:svg="http://www.w3.org/2000/svg"
   xmlns="http://www.w3.org/2000/svg"
   xmlns:sodipodi="http://sodipodi.sourceforge.net/DTD/sodipodi-0.dtd"
   xmlns:inkscape="http://www.inkscape.org/namespaces/inkscape"
   width="400mm"
   height="100mm"
   viewBox="0 0 400 100"
   version="1.1"
   id="svg1018"
   inkscape:version="0.92.4 5da689c313, 2019-01-14"
   sodipodi:docname="Wave3.svg">
  <defs
     id="defs1012">
    <inkscape:path-effect
       effect="spiro"
       id="path-effect946"
       is_visible="true" />
    <inkscape:path-effect
       effect="spiro"
       id="path-effect958"
       is_visible="true" />
    <inkscape:path-effect
       effect="spiro"
       id="path-effect978"
       is_visible="true" />
  </defs>
  <sodipodi:namedview
     id="base"
     pagecolor="#ffffff"
     bordercolor="#666666"
     borderopacity="1.0"
     inkscape:pageopacity="0.0"
     inkscape:pageshadow="2"
     inkscape:zoom="0.22627417"
     inkscape:cx="-154.58931"
     inkscape:cy="77.927926"
     inkscape:document-units="mm"
     inkscape:current-layer="layer1"
     showgrid="false"
     inkscape:window-width="1366"
     inkscape:window-height="712"
     inkscape:window-x="0"
     inkscape:window-y="25"
     inkscape:window-maximized="1" />
  <metadata
     id="metadata1015">
    <rdf:RDF>
      <cc:Work
         rdf:about="">
        <dc:format>image/svg+xml</dc:format>
        <dc:type
           rdf:resource="http://purl.org/dc/dcmitype/StillImage" />
        <dc:title />
      </cc:Work>
    </rdf:RDF>
  </metadata>
  <g
     inkscape:label="Layer 1"
     inkscape:groupmode="layer"
     id="layer1"
     transform="translate(0,-197)">
    <path
       style="fill:#004455;stroke:none;stroke-width:0.26458332px;stroke-linecap:butt;stroke-linejoin:miter;stroke-opacity:1;fill-opacity:1"
       d="m -133.04762,224.42857 c 3.46014,-3.23524 7.88098,-5.42995 12.54989,-6.23034 4.66891,-0.80038 9.56832,-0.20343 13.90845,1.69462 3.94074,1.72339 7.34989,4.45002 11.102789,6.55128 1.876449,1.05063 3.854088,1.94984 5.944658,2.45422 2.090571,0.50438 4.304496,0.60236 6.387073,0.0659 3.019328,-0.77772 5.532713,-2.79889 8.077854,-4.59984 1.272571,-0.90048 2.583256,-1.76127 4.005479,-2.39969 1.422224,-0.63842 2.967203,-1.05028 4.525751,-1.01529 1.919859,0.0431 3.776451,0.76264 5.411107,1.77041 1.634656,1.00778 3.073579,2.29836 4.492759,3.59206 1.41918,1.29369 2.836538,2.60429 4.440126,3.66081 1.603588,1.05651 3.418848,1.85682 5.332636,2.01535 2.309934,0.19134 4.621419,-0.56778 6.615447,-1.74942 1.994027,-1.18163 3.711808,-2.7702 5.381368,-4.37799 1.669559,-1.60779 3.317996,-3.25612 5.214943,-4.58804 1.896947,-1.33191 4.081132,-2.34499 6.39301,-2.5112 1.858493,-0.13361 3.726053,0.2859 5.452202,0.98751 1.72615,0.70161 3.325464,1.67929 4.883594,2.70109 3.1162587,2.0436 6.2375035,4.33958 9.9046746,5.00234 2.02730876,0.36639 4.1221765,0.20593 6.1375976,-0.22103 2.015421,-0.42697 3.9648012,-1.11532 5.9037108,-1.81163 3.877819,-1.39262 7.936727,-2.84825 12.017968,-2.28225 3.441807,0.47732 6.508748,2.34463 9.482393,4.14221 2.973646,1.79758 6.089887,3.60897 9.547615,3.95246 2.797635,0.27792 5.622818,-0.44152 8.176578,-1.61724 2.553759,-1.17571 4.873895,-2.79531 7.170165,-4.41739 2.296269,-1.62208 4.597813,-3.26379 7.127334,-4.49078 2.529522,-1.227 5.324493,-2.0303 8.131062,-1.86546 2.181648,0.12813 4.297411,0.8359 6.26037,1.79653 1.962959,0.96062 3.790353,2.17254 5.616649,3.37281 1.826296,1.20027 3.665353,2.39677 5.644813,3.32292 1.979459,0.92614 4.116806,1.57899 6.301601,1.63075 3.693701,0.0875 7.191013,-1.52227 10.526963,-3.11052 3.33595,-1.58825 6.81389,-3.22445 10.50851,-3.19531 2.52092,0.0199 4.98058,0.82538 7.24996,1.92326 2.26939,1.09788 4.38251,2.4878 6.55301,3.77013 2.17051,1.28233 4.42842,2.46961 6.86661,3.11042 2.4382,0.64081 5.09,0.70326 7.43185,-0.23012 2.30103,-0.9171 4.12388,-2.70062 6.08205,-4.21764 0.97909,-0.75851 2.0121,-1.4621 3.14919,-1.953 1.13709,-0.4909 2.38825,-0.76279 3.61995,-0.63293 1.62678,0.17152 3.11764,1.03188 4.33105,2.12891 1.21341,1.09703 2.18657,2.42839 3.16924,3.73613 0.98268,1.30775 1.99634,2.61483 3.26933,3.64213 1.27299,1.0273 2.84486,1.7639 4.48062,1.75228 1.3472,-0.01 2.65313,-0.52478 3.78409,-1.25687 1.13097,-0.7321 2.1074,-1.67571 3.06024,-2.62815 0.95284,-0.95244 1.89525,-1.92467 2.97651,-2.72836 1.08126,-0.8037 2.32041,-1.4389 3.65511,-1.62226 1.45952,-0.20051 2.95354,0.15189 4.29252,0.76632 1.33898,0.61442 2.5441,1.48187 3.72488,2.36287 1.18078,0.881 2.3531,1.7853 3.64888,2.48627 1.29577,0.70097 2.73551,1.19574 4.20872,1.18811 1.7132,-0.009 3.36673,-0.69807 4.78658,-1.6568 1.41984,-0.95874 2.63806,-2.1812 3.85503,-3.38708 1.21696,-1.20587 2.45409,-2.41262 3.90024,-3.3312 1.44614,-0.91859 3.13405,-1.53938 4.84506,-1.4523 1.62943,0.0829 3.17289,0.80051 4.49961,1.75011 1.32672,0.94961 2.46844,2.12919 3.63407,3.27079 1.16563,1.14159 2.37747,2.26257 3.79969,3.06209 1.42222,0.79951 3.08882,1.26017 4.69758,0.98844 1.29356,-0.21849 2.47319,-0.89446 3.48542,-1.72899 1.01223,-0.83452 1.87826,-1.82889 2.76534,-2.79539 0.88708,-0.9665 1.80966,-1.91787 2.90441,-2.64074 1.09476,-0.72288 2.38543,-1.20863 3.69602,-1.15036 1.10592,0.0492 2.16973,0.48278 3.093,1.09356 0.92327,0.61078 1.71874,1.39441 2.47309,2.20462 0.75435,0.8102 1.47537,1.65353 2.28207,2.41163 0.80671,0.75809 1.70887,1.43476 2.73517,1.84971 1.71749,0.69442 3.67758,0.60424 5.45095,0.0684 1.77338,-0.53584 3.38962,-1.48968 4.93925,-2.50489 1.54963,-1.0152 3.05818,-2.10392 4.70534,-2.95178 1.64715,-0.84786 3.46299,-1.45301 5.31517,-1.4153 1.85177,0.0377 3.63167,0.71188 5.30179,1.51262 1.67012,0.80074 3.2808,1.73938 5.02385,2.36568 2.12835,0.76475 4.44113,1.04455 6.6785,0.71458 2.23737,-0.32996 4.39306,-1.2799 6.08523,-2.78032 1.09041,-0.96685 1.97979,-2.1459 3.09159,-3.08808 0.55589,-0.47109 1.16978,-0.88265 1.84806,-1.14887 0.67829,-0.26622 1.42495,-0.38236 2.14349,-0.26136 0.70222,0.11825 1.35434,0.45816 1.91199,0.90101 0.55766,0.44285 1.02707,0.98676 1.45853,1.55328 0.86291,1.13302 1.6096,2.39245 2.7427,3.25527 0.96303,0.73332 2.17468,1.13384 3.38504,1.11895 1.21036,-0.0149 2.41179,-0.44509 3.35649,-1.20188 0.94471,-0.75679 1.62672,-1.83538 1.90537,-3.01332 0.27866,-1.17794 0.15219,-2.44779 -0.3533,-3.54764 l 0.77782,94.33437 -458.10714,0.75595 z"
       id="path976"
       inkscape:connector-curvature="0"
       inkscape:path-effect="#path-effect978"
       inkscape:original-d="m -133.04762,224.42857 c 6.29733,17.83838 26.21792,-4.65592 26.45834,-4.53572 10.339693,5.16985 11.050158,13.19955 23.43452,9.07143 7.831767,-2.61059 7.523356,-8.01482 16.609084,-8.01482 4.059344,0 16.995624,13.71964 19.676628,11.03863 2.930221,-2.93022 20.20338,-14.92735 23.604768,-13.22665 7.056013,3.528 15.4507003,6.29605 20.2404706,8.69094 9.8264183,4.91321 11.7857214,-7.38329 24.0592764,-4.31491 4.912887,1.22823 15.965615,9.62687 19.030008,8.09467 5.987767,-2.99388 23.48489,-15.95099 30.605139,-12.39087 9.028827,4.51442 13.985992,8.15552 23.823433,10.12301 9.094053,1.81882 14.128403,-8.60819 21.035473,-6.30583 7.59317,2.53106 18.6793,11.7144 28.10143,8.57369 2.02315,-0.67438 10.74052,-8.91424 12.85119,-6.80357 2.23396,2.23396 10.60519,13.58198 15.25024,11.25945 7.26277,-3.63138 4.56717,-8.23564 13.47595,-8.23564 6.0042,0 10.37275,8.63765 15.875,6.80357 6.35387,-2.11796 10.75794,-8.50159 17.38691,-9.82738 6.37449,-1.2749 15.37707,9.69836 16.63095,9.07143 4.27022,-2.13512 8.29848,-6.03913 12.85119,-8.31548 5.79515,-2.89758 7.08123,9.31058 10.58333,7.55952 4.93868,-2.46933 14.23079,-9.89353 20.41071,-6.80357 1.85383,0.92691 7.83191,5.12517 10.32564,3.8783 4.5413,-2.27065 4.81927,-6.03797 12.76373,-2.06574 3.26252,1.63127 3.91192,-6.08392 7.08314,-4.49831 1.93879,0.9694 4.86772,7.5181 6.11322,5.70956 3.24075,-4.70576 -2.90761,-12.69364 8.2936,-6.64389 l 0.77782,94.33437 -458.10714,0.75595 z"
       transform="matrix(0.97111282,0,0,0.98927046,96.911273,-3.0747153)"
       inkscape:transform-center-x="-134.22895"
       inkscape:transform-center-y="-8.0974117"
       sodipodi:nodetypes="ccssccscccsscscssscccccccscccc" />
  </g>
</svg>
