<?xml version="1.0" encoding="UTF-8" standalone="no"?>
<!-- Created with Inkscape (http://www.inkscape.org/) -->

<svg
   xmlns:dc="http://purl.org/dc/elements/1.1/"
   xmlns:cc="http://creativecommons.org/ns#"
   xmlns:rdf="http://www.w3.org/1999/02/22-rdf-syntax-ns#"
   xmlns:svg="http://www.w3.org/2000/svg"
   xmlns="http://www.w3.org/2000/svg"
   xmlns:sodipodi="http://sodipodi.sourceforge.net/DTD/sodipodi-0.dtd"
   xmlns:inkscape="http://www.inkscape.org/namespaces/inkscape"
   width="400mm"
   height="100mm"
   viewBox="0 0 400 100"
   version="1.1"
   id="svg1018"
   inkscape:version="0.92.4 5da689c313, 2019-01-14"
   sodipodi:docname="Wave2.svg">
  <defs
     id="defs1012">
    <inkscape:path-effect
       effect="spiro"
       id="path-effect946"
       is_visible="true" />
    <inkscape:path-effect
       effect="spiro"
       id="path-effect958"
       is_visible="true" />
  </defs>
  <sodipodi:namedview
     id="base"
     pagecolor="#ffffff"
     bordercolor="#666666"
     borderopacity="1.0"
     inkscape:pageopacity="0.0"
     inkscape:pageshadow="2"
     inkscape:zoom="0.22627417"
     inkscape:cx="-610.77644"
     inkscape:cy="-157.89325"
     inkscape:document-units="mm"
     inkscape:current-layer="layer1"
     showgrid="false"
     inkscape:window-width="1366"
     inkscape:window-height="712"
     inkscape:window-x="0"
     inkscape:window-y="25"
     inkscape:window-maximized="1" />
  <metadata
     id="metadata1015">
    <rdf:RDF>
      <cc:Work
         rdf:about="">
        <dc:format>image/svg+xml</dc:format>
        <dc:type
           rdf:resource="http://purl.org/dc/dcmitype/StillImage" />
        <dc:title />
      </cc:Work>
    </rdf:RDF>
  </metadata>
  <g
     inkscape:label="Layer 1"
     inkscape:groupmode="layer"
     id="layer1"
     transform="translate(0,-197)">
    <path
       style="fill:#00aad4;stroke:none;stroke-width:0.26458332px;stroke-linecap:butt;stroke-linejoin:miter;stroke-opacity:1;fill-opacity:1"
       d="m -49.892857,219.1369 c 2.492381,-2.51532 5.655105,-4.36024 9.07143,-5.29166 4.059948,-1.10689 8.384409,-0.92285 12.509944,-0.0932 4.125535,0.82967 8.094646,2.28525 12.051461,3.71773 3.956816,1.43249 7.94172,2.85312 12.0814841,3.60859 4.13976408,0.75548 8.4764175,0.82234 12.4940139,-0.42958 5.820575,-1.81375 10.424902,-6.16583 15.210106,-9.94348 2.392602,-1.88882 4.896942,-3.67199 7.6676,-4.94308 2.770657,-1.27108 5.836011,-2.01493 8.872293,-1.7444 3.08298,0.27469 5.998381,1.578 8.594928,3.26268 2.596547,1.68469 4.918916,3.75104 7.29322,5.73671 2.374303,1.98568 4.834923,3.91362 7.619651,5.26473 2.784729,1.35111 5.94189,2.10024 8.998153,1.61088 3.08961,-0.4947 5.876191,-2.22043 8.142571,-4.37773 2.266379,-2.1573 4.072903,-4.74287 5.86065,-7.31082 1.787748,-2.56796 3.589082,-5.15644 5.847435,-7.32214 2.258353,-2.1657 5.033737,-3.9062 8.119587,-4.42383 3.51474,-0.58958 7.14809,0.45867 10.24396,2.22406 3.09587,1.76539 5.73868,4.2123 8.3388,6.64959 2.60013,2.43729 5.21502,4.90824 8.27487,6.73536 3.05984,1.82711 6.64848,2.98202 10.18403,2.53385 2.98686,-0.37862 5.73784,-1.87125 8.09905,-3.73923 2.36121,-1.86798 4.38925,-4.11455 6.49435,-6.26704 2.1051,-2.15249 4.32814,-4.24301 6.95902,-5.70694 2.63089,-1.46393 5.73313,-2.26287 8.68568,-1.6737 2.68041,0.53487 5.03173,2.16096 6.97904,4.07896 1.9473,1.91799 3.55946,4.14374 5.33614,6.22078 1.77667,2.07705 3.77157,4.04528 6.22907,5.24169 1.22875,0.5982 2.56441,0.99372 3.9284,1.07866 1.36398,0.0849 2.75662,-0.14752 3.98568,-0.74509 1.48494,-0.72198 2.67832,-1.94407 3.62461,-3.29716 0.94628,-1.35309 1.66951,-2.84621 2.43182,-4.31086 0.7623,-1.46465 1.57671,-2.9204 2.67418,-4.15405 1.09746,-1.23365 2.50887,-2.24224 4.12058,-2.60102 1.82643,-0.40658 3.76538,0.0563 5.41333,0.94255 1.64796,0.88622 3.04466,2.17026 4.36566,3.49544 1.321,1.32518 2.5923,2.71141 4.06855,3.86113 1.47624,1.14971 3.19304,2.06481 5.05127,2.28421 2.08294,0.24594 4.20372,-0.40857 5.98281,-1.51941 1.77909,-1.11085 3.24883,-2.65465 4.55954,-4.29208 1.31071,-1.63743 2.48159,-3.383 3.79306,-5.01982 1.31147,-1.63682 2.78277,-3.17937 4.5634,-4.28774 2.07682,-1.29272 4.52205,-1.94857 6.96735,-2.01789 2.4453,-0.0693 4.88988,0.43471 7.16801,1.32603 4.55625,1.78262 8.37513,5.04551 11.80466,8.53486 2.04588,2.08157 3.98132,4.3434 5.14365,7.02062 1.16233,2.67723 1.39711,5.65236 1.42227,8.57091 l 0.75597,87.69048 H -51.404762 Z"
       id="path956"
       inkscape:connector-curvature="0"
       inkscape:path-effect="#path-effect958"
       inkscape:original-d="m -49.892857,219.1369 c 3.710281,-0.67599 5.732706,-3.6223 9.07143,-5.29166 20.855842,-10.42793 29.56605,13.32718 49.136903,6.80357 11.105239,-3.70175 18.463574,-19.95256 31.749999,-16.63096 11.942673,2.98567 19.299809,20.27705 32.505952,15.875 11.061594,-3.68719 17.24199,-18.0704 27.970243,-23.43452 14.49142,-7.24571 28.02161,13.63283 37.04166,18.14286 13.61974,6.80987 22.21632,-13.37602 30.2381,-17.38691 8.8107,-4.40535 12.19336,23.00749 26.45833,15.875 6.83125,-3.41562 7.69185,-11.78342 12.85119,-14.36309 8.33958,-4.16979 10.78265,14.64141 18.89881,10.58333 3.9425,-1.97125 16.23397,-17.78388 18.89881,-15.11905 7.76719,7.76719 20.19997,2.10295 25.94002,7.843 10.05805,10.05805 5.33717,-10.80235 6.56592,15.59153 l 0.75597,87.69048 H -51.404762 Z"
       transform="matrix(1.3975363,0,0,1.0085123,62.527862,13.985913)"
       sodipodi:nodetypes="csssssssssscscccc" />
  </g>
</svg>
