<?xml version="1.0" encoding="UTF-8" standalone="no"?>
<!-- Created with Inkscape (http://www.inkscape.org/) -->

<svg
   xmlns:dc="http://purl.org/dc/elements/1.1/"
   xmlns:cc="http://creativecommons.org/ns#"
   xmlns:rdf="http://www.w3.org/1999/02/22-rdf-syntax-ns#"
   xmlns:svg="http://www.w3.org/2000/svg"
   xmlns="http://www.w3.org/2000/svg"
   xmlns:sodipodi="http://sodipodi.sourceforge.net/DTD/sodipodi-0.dtd"
   xmlns:inkscape="http://www.inkscape.org/namespaces/inkscape"
   width="400mm"
   height="100mm"
   viewBox="0 0 400 100"
   version="1.1"
   id="svg1018"
   inkscape:version="0.92.4 5da689c313, 2019-01-14"
   sodipodi:docname="Wave4.svg">
  <defs
     id="defs1012">
    <inkscape:path-effect
       effect="spiro"
       id="path-effect946"
       is_visible="true" />
    <inkscape:path-effect
       effect="spiro"
       id="path-effect958"
       is_visible="true" />
    <inkscape:path-effect
       effect="spiro"
       id="path-effect978"
       is_visible="true" />
    <inkscape:path-effect
       effect="spiro"
       id="path-effect1010"
       is_visible="true" />
  </defs>
  <sodipodi:namedview
     id="base"
     pagecolor="#ffffff"
     bordercolor="#666666"
     borderopacity="1.0"
     inkscape:pageopacity="0.0"
     inkscape:pageshadow="2"
     inkscape:zoom="0.64"
     inkscape:cx="1077.109"
     inkscape:cy="50.141744"
     inkscape:document-units="mm"
     inkscape:current-layer="layer1"
     showgrid="false"
     inkscape:window-width="1366"
     inkscape:window-height="712"
     inkscape:window-x="0"
     inkscape:window-y="25"
     inkscape:window-maximized="1" />
  <metadata
     id="metadata1015">
    <rdf:RDF>
      <cc:Work
         rdf:about="">
        <dc:format>image/svg+xml</dc:format>
        <dc:type
           rdf:resource="http://purl.org/dc/dcmitype/StillImage" />
        <dc:title />
      </cc:Work>
    </rdf:RDF>
  </metadata>
  <g
     inkscape:label="Layer 1"
     inkscape:groupmode="layer"
     id="layer1"
     transform="translate(0,-197)">
    <path
       style="fill:#0b2228;fill-opacity:1;stroke:none;stroke-width:0.26458332px;stroke-linecap:butt;stroke-linejoin:miter;stroke-opacity:1"
       d="m -492.88093,405.85715 c 36.58066,17.81507 81.34788,17.81507 117.92854,0 10.66993,-5.19634 20.63317,-11.79289 31.47704,-16.61573 10.84387,-4.82283 23.00319,-7.83288 34.59937,-5.30741 9.25325,2.01521 17.37054,7.35258 25.49676,12.21552 8.12622,4.86294 16.88854,9.45842 26.35541,9.70762 5.28197,0.13904 10.52214,-1.09944 15.48682,-2.9079 4.96467,-1.80845 9.69957,-4.18317 14.48807,-6.41674 4.78849,-2.23357 9.67193,-4.34086 14.81045,-5.57136 5.13852,-1.2305 10.57777,-1.55532 15.69085,-0.22306 6.83155,1.78002 12.54978,6.32577 18.07696,10.71767 5.52718,4.39191 11.32929,8.86424 18.20876,10.449 4.84584,1.11629 9.94488,0.70947 14.77462,-0.4745 4.82975,-1.18398 9.43666,-3.12292 14.00321,-5.0914 4.56654,-1.96847 9.13504,-3.98114 13.92313,-5.32369 4.78809,-1.34254 9.84256,-2.00019 14.75142,-1.20565 4.833092,0.78228 9.355418,2.94386 13.445483,5.63497 4.090065,2.69112 7.797145,5.9147 11.552685,9.05582 3.755539,3.14113 7.597205,6.22632 11.883855,8.59177 4.28665,2.36545 9.071722,3.99662 13.967651,4.02128 4.625094,0.0233 9.171441,-1.38729 13.300361,-3.47153 4.12892,-2.08424 7.88428,-4.82972 11.560944,-7.63582 3.676663,-2.8061 7.306877,-5.69357 11.254115,-8.10424 3.947239,-2.41068 8.2520272,-4.34731 12.8206166,-5.06844 5.6013548,-0.88415 11.3772387,0.10151 16.7067634,2.03879 5.329524,1.93728 10.270156,4.79829 15.102977,7.76489 4.83282,2.96661 9.604489,6.06202 14.712856,8.52402 5.108368,2.46201 10.608521,4.28886 16.273647,4.54034 6.083198,0.27004 12.140233,-1.29064 17.721856,-3.72451 5.581623,-2.43386 10.742438,-5.72466 15.82604,-9.07656 5.083602,-3.35189 10.13279,-6.78878 15.55943,-9.551 5.42663,-2.76222 11.28304,-4.848 17.35515,-5.30374 6.90879,-0.51854 13.84494,1.09566 20.26638,3.6967 6.42143,2.60104 12.39802,6.16992 18.33935,9.73376 5.94132,3.56384 11.90461,7.15156 18.30885,9.79467 6.40423,2.64312 13.31909,4.32473 20.23409,3.89689 10.99636,-0.68036 20.91973,-6.53566 30.25117,-12.3929 9.33143,-5.85723 18.96096,-12.02826 29.88339,-13.47165 6.24628,-0.82544 12.64126,-0.0361 18.67811,1.76776 6.03684,1.80385 11.73795,4.6025 17.1609,7.81015 8.03351,4.75179 15.52507,10.42582 23.84161,14.66278 8.31654,4.23697 17.78955,7.0076 26.9785,5.37057 5.32387,-0.94846 10.30009,-3.33224 14.87537,-6.21495 4.57529,-2.8827 8.8049,-6.27363 13.1711,-9.46417 4.36619,-3.19054 8.91648,-6.20696 13.93281,-8.22679 5.01632,-2.01983 10.56071,-3.00406 15.87853,-2.02221 4.56572,0.84299 8.77664,3.09337 12.48673,5.88473 3.71009,2.79135 6.97149,6.12504 10.24179,9.42072 3.27031,3.29568 6.58509,6.58405 10.37643,9.26401 3.79133,2.67997 8.11352,4.74622 12.72123,5.3167 5.38495,0.66671 10.88159,-0.7554 15.70091,-3.24865 4.81932,-2.49325 9.03012,-6.01473 12.97397,-9.74142 3.94385,-3.72668 7.6671,-7.68974 11.76137,-11.25051 4.09427,-3.56077 8.61213,-6.74077 13.70249,-8.61969 5.3587,-1.97797 11.21164,-2.44586 16.88485,-1.78052 5.67322,0.66533 11.17851,2.43724 16.37706,4.80434 6.88898,3.13682 13.25307,7.30403 19.94131,10.84875 6.68825,3.54472 13.87814,6.5086 21.43568,6.93434 7.10152,0.40005 14.16949,-1.47113 20.72752,-4.22501 6.55803,-2.75388 12.70457,-6.38221 18.98899,-9.71353 6.28442,-3.33133 12.79491,-6.39826 19.74646,-7.90412 6.95154,-1.50586 14.43628,-1.35576 20.91703,1.57536 7.20465,3.25853 12.48647,9.54677 17.83778,15.36816 2.67565,2.91069 5.44317,5.76326 8.59759,8.14672 3.15442,2.38347 6.72605,4.29529 10.591,5.12803 5.5128,1.18778 11.3377,0.10549 16.49956,-2.16542 5.16185,-2.27092 9.74128,-5.67452 14.0871,-9.26836 4.34582,-3.59384 8.51691,-7.41392 13.11542,-10.67821 4.5985,-3.26428 9.69476,-5.98616 15.22883,-7.07053 6.95217,-1.36223 14.22417,-0.0509 20.80013,2.58442 6.57596,2.63535 12.55556,6.54338 18.40109,10.54564 5.84553,4.00227 11.63519,8.1421 17.97012,11.31338 6.33493,3.17128 13.31235,5.35985 20.39404,5.16472 9.32533,-0.25695 18.06001,-4.5898 25.86706,-9.69644 7.80705,-5.10664 15.07522,-11.09588 23.38649,-15.3327 15.56441,-7.93423 34.43643,-9.1 50.85902,-3.14167 16.42259,5.95832 30.15665,18.954 37.01253,35.0226 l 2e-5,193.14704 H -495.90476 Z"
       id="path1008"
       inkscape:connector-curvature="0"
       inkscape:path-effect="#path-effect1010"
       inkscape:original-d="m -492.88093,405.85715 c 49.80887,-53.37056 78.08153,-19.92352 117.92854,0 31.16109,15.58052 50.34334,-21.92314 66.07641,-21.92314 19.31874,0 43.81889,13.88983 51.85217,21.92314 11.74459,11.74459 51.89393,-10.82791 60.47619,-15.11906 22.90487,-11.45244 28.17942,13.06036 36.28572,21.16667 14.59642,14.59642 42.97868,-19.33208 57.45238,-12.09524 10.681528,5.34077 40.978933,22.36846 50.849674,27.30384 14.50621,7.2531 30.325892,-42.89018 48.9360366,-24.28003 6.83998,6.83998 56.3523764,16.42417 62.7962434,22.86804 1.022708,1.02269 33.088572,-27.65581 66.462476,-27.65581 19.85404,0 55.43366,27.31509 77.14867,27.12202 125.04833,-1.11182 35.9244,-18.32107 60.13456,-25.86455 36.55581,-11.39018 1.3344,9.57791 35.83901,9.57791 7.92096,0 43.76278,23.56204 50.82011,20.03335 24.18509,-12.09255 23.2088,-43.25264 57.85781,-25.92812 19.40094,9.70047 28.90566,25.62031 45.82618,29.88616 27.87784,7.02831 31.60061,-32.86027 54.13874,-32.86027 10.34844,0 27.7894,-2.44869 33.26191,3.02382 3.44956,3.44956 33.06982,21.93668 41.37699,17.78309 20.56175,-10.28089 51.05784,-49.58943 80.38,-20.2673 8.6419,8.64193 29.12512,20.74166 37.02637,28.64291 6.81082,6.81082 54.91337,-25.16498 58.93091,-29.18252 20.36123,-20.36119 73.23725,33.93632 77.56538,29.60816 70.84814,-70.84814 33.05666,-16.9307 49.25355,-25.02914 32.22974,-16.11488 57.23304,8.90205 87.87155,31.88093 l 2e-5,193.14704 H -495.90476 Z"
       transform="matrix(0.31825176,0,0,0.32813998,107.6024,92.432277)"
       sodipodi:nodetypes="ccsccsccscsssscssssscsscscccc" />
  </g>
</svg>
