<?xml version="1.0" encoding="UTF-8" standalone="no"?>
<!-- Created with Inkscape (http://www.inkscape.org/) -->

<svg
   xmlns:dc="http://purl.org/dc/elements/1.1/"
   xmlns:cc="http://creativecommons.org/ns#"
   xmlns:rdf="http://www.w3.org/1999/02/22-rdf-syntax-ns#"
   xmlns:svg="http://www.w3.org/2000/svg"
   xmlns="http://www.w3.org/2000/svg"
   xmlns:sodipodi="http://sodipodi.sourceforge.net/DTD/sodipodi-0.dtd"
   xmlns:inkscape="http://www.inkscape.org/namespaces/inkscape"
   width="400mm"
   height="100mm"
   viewBox="0 0 400 100"
   version="1.1"
   id="svg1018"
   inkscape:version="0.92.4 5da689c313, 2019-01-14"
   sodipodi:docname="Wave1.svg">
  <defs
     id="defs1012">
    <inkscape:path-effect
       effect="spiro"
       id="path-effect946"
       is_visible="true" />
  </defs>
  <sodipodi:namedview
     id="base"
     pagecolor="#ffffff"
     bordercolor="#666666"
     borderopacity="1.0"
     inkscape:pageopacity="0.0"
     inkscape:pageshadow="2"
     inkscape:zoom="0.22627417"
     inkscape:cx="-1583.0483"
     inkscape:cy="-157.89325"
     inkscape:document-units="mm"
     inkscape:current-layer="layer1"
     showgrid="false"
     inkscape:window-width="1366"
     inkscape:window-height="712"
     inkscape:window-x="0"
     inkscape:window-y="25"
     inkscape:window-maximized="1" />
  <metadata
     id="metadata1015">
    <rdf:RDF>
      <cc:Work
         rdf:about="">
        <dc:format>image/svg+xml</dc:format>
        <dc:type
           rdf:resource="http://purl.org/dc/dcmitype/StillImage" />
        <dc:title />
      </cc:Work>
    </rdf:RDF>
  </metadata>
  <g
     inkscape:label="Layer 1"
     inkscape:groupmode="layer"
     id="layer1"
     transform="translate(0,-197)">
    <path
       style="fill:#80e5ff;stroke:none;stroke-width:0.26458332px;stroke-linecap:butt;stroke-linejoin:miter;stroke-opacity:1;fill-opacity:1"
       d="m -29.399648,193.29942 c 2.098908,7.41706 7.238354,13.92436 13.967282,17.68464 6.7289271,3.76028 14.96445066,4.72723 22.3813736,2.62784 2.5075697,-0.70978 4.9076974,-1.74835 7.3611514,-2.62713 2.453455,-0.87878 5.000239,-1.60443 7.605942,-1.64918 2.757461,-0.0473 5.485456,0.67372 8.023747,1.75211 2.53829,1.07838 4.909098,2.50923 7.261703,3.94836 2.352605,1.43912 4.705021,2.89597 7.218029,4.03203 2.513007,1.13606 5.2085,1.94878 7.965247,2.02736 2.602003,0.0742 5.186675,-0.50687 7.646536,-1.35835 2.459861,-0.85147 4.816124,-1.97177 7.19892,-3.01972 2.382797,-1.04795 4.811551,-2.03004 7.354788,-2.58489 2.543237,-0.55486 5.221997,-0.66873 7.733941,0.014 2.781449,0.75593 5.238045,2.44616 8.018087,3.20724 3.266162,0.89417 6.788757,0.43709 9.974071,-0.71232 3.18531,-1.1494 6.08628,-2.95807 8.91661,-4.81726 2.83034,-1.85918 5.63303,-3.79127 8.7005,-5.22584 3.06747,-1.43457 6.45241,-2.36076 9.82655,-2.07352 2.88888,0.24593 5.64668,1.37049 8.13652,2.85603 2.48984,1.48554 4.74292,3.32997 7.00038,5.14929 2.25747,1.81933 4.54266,3.6296 7.07854,5.0351 2.53588,1.40549 5.35461,2.39969 8.25329,2.46121 3.39959,0.0722 6.71846,-1.13993 9.67391,-2.82151 2.95545,-1.68158 5.61382,-3.82875 8.36369,-5.82891 2.74987,-2.00015 5.64611,-3.88176 8.88077,-4.93028 3.23465,-1.04852 6.87243,-1.19682 9.96482,0.21723 1.66971,0.7635 3.12372,1.94849 4.81085,2.67269 1.65904,0.71215 3.4917,0.95252 5.29673,0.91441 1.80503,-0.0381 3.59301,-0.34609 5.36466,-0.69368 3.54331,-0.69517 7.19862,-1.55334 10.72018,-0.75527 2.58314,0.5854 4.87886,2.01946 7.15227,3.37847 2.27341,1.35901 4.65409,2.69182 7.28028,3.036 2.15757,0.28276 4.40185,-0.14017 6.30851,-1.18883 1.90666,-1.04867 3.46568,-2.71755 4.38227,-4.6911 v 87.12987 L -31.003265,297 Z"
       id="path944"
       inkscape:connector-curvature="0"
       inkscape:path-effect="#path-effect946"
       inkscape:original-d="m -29.399648,193.29942 c 7.321833,11.42029 21.5524126,24.53998 36.3486556,20.31248 6.4838694,-1.85253 7.0905214,-5.58907 14.9670934,-4.27631 11.666667,1.94445 15.635772,11.05353 30.468726,11.75986 11.305929,0.53838 19.394514,-4.84107 29.934185,-6.94901 3.588195,-0.71764 3.80092,4.26153 8.018087,3.20724 13.186861,-3.29672 23.373641,-11.17669 37.417731,-12.82894 12.78853,-1.50453 19.06755,12.65134 30.46873,15.50163 9.58393,2.39599 27.82131,-9.73872 36.88319,-13.36347 1.22108,-0.48844 4.36076,2.2226 4.81085,2.67269 2.36912,2.36912 17.6764,-1.2082 21.38157,-0.53454 4.94283,0.8987 9.51866,7.64294 14.43255,6.41447 3.63855,-0.90964 6.53803,-4.84174 10.69078,-5.87993 v 87.12987 L -31.003265,297 Z"
       transform="matrix(1.4523304,0,0,1,43.333612,3.3514587)" />
  </g>
</svg>
