<?xml version="1.0" encoding="UTF-8" standalone="no"?>
<!-- Created with Inkscape (http://www.inkscape.org/) -->

<svg
   xmlns:dc="http://purl.org/dc/elements/1.1/"
   xmlns:cc="http://creativecommons.org/ns#"
   xmlns:rdf="http://www.w3.org/1999/02/22-rdf-syntax-ns#"
   xmlns:svg="http://www.w3.org/2000/svg"
   xmlns="http://www.w3.org/2000/svg"
   xmlns:sodipodi="http://sodipodi.sourceforge.net/DTD/sodipodi-0.dtd"
   xmlns:inkscape="http://www.inkscape.org/namespaces/inkscape"
   width="400mm"
   height="100mm"
   viewBox="0 0 400 100"
   version="1.1"
   id="svg1018"
   inkscape:version="0.92.4 5da689c313, 2019-01-14"
   sodipodi:docname="Wave4.svg">
  <defs
     id="defs1012">
    <inkscape:path-effect
       effect="spiro"
       id="path-effect946"
       is_visible="true" />
    <inkscape:path-effect
       effect="spiro"
       id="path-effect958"
       is_visible="true" />
    <inkscape:path-effect
       effect="spiro"
       id="path-effect978"
       is_visible="true" />
    <inkscape:path-effect
       effect="spiro"
       id="path-effect1010"
       is_visible="true" />
  </defs>
  <sodipodi:namedview
     id="base"
     pagecolor="#ffffff"
     bordercolor="#666666"
     borderopacity="1.0"
     inkscape:pageopacity="0.0"
     inkscape:pageshadow="2"
     inkscape:zoom="0.32"
     inkscape:cx="706.5691"
     inkscape:cy="-102.94004"
     inkscape:document-units="mm"
     inkscape:current-layer="layer1"
     showgrid="false"
     inkscape:window-width="1366"
     inkscape:window-height="712"
     inkscape:window-x="0"
     inkscape:window-y="25"
     inkscape:window-maximized="1" />
  <metadata
     id="metadata1015">
    <rdf:RDF>
      <cc:Work
         rdf:about="">
        <dc:format>image/svg+xml</dc:format>
        <dc:type
           rdf:resource="http://purl.org/dc/dcmitype/StillImage" />
        <dc:title />
      </cc:Work>
    </rdf:RDF>
  </metadata>
  <g
     inkscape:label="Layer 1"
     inkscape:groupmode="layer"
     id="layer1"
     transform="translate(0,-197)">
    <path
       style="fill:#0b2228;stroke:none;stroke-width:0.26458332px;stroke-linecap:butt;stroke-linejoin:miter;stroke-opacity:1;fill-opacity:1"
       d="m -492.88093,405.85715 c 36.58066,17.81507 81.34788,17.81507 117.92854,0 10.66993,-5.19634 20.63317,-11.79289 31.47704,-16.61573 10.84387,-4.82283 23.00319,-7.83288 34.59937,-5.30741 9.25325,2.01521 17.37054,7.35258 25.49676,12.21552 8.12622,4.86294 16.88854,9.45842 26.35541,9.70762 5.28197,0.13904 10.52214,-1.09944 15.48682,-2.9079 4.96467,-1.80845 9.69957,-4.18317 14.48807,-6.41674 4.78849,-2.23357 9.67193,-4.34086 14.81045,-5.57136 5.13852,-1.2305 10.57777,-1.55531 15.69085,-0.22306 6.83155,1.78002 12.54978,6.32577 18.07696,10.71767 5.52718,4.39191 11.32929,8.86424 18.20876,10.449 4.84584,1.11629 9.94488,0.70947 14.77462,-0.4745 4.82975,-1.18397 9.43666,-3.12292 14.00321,-5.0914 4.56654,-1.96847 9.13504,-3.98114 13.92313,-5.32368 4.78809,-1.34255 9.84256,-2.0002 14.75142,-1.20566 4.833092,0.78228 9.355418,2.94386 13.445484,5.63497 4.090066,2.69111 7.797146,5.9147 11.552686,9.05582 3.75554,3.14112 7.597205,6.22631 11.883855,8.59176 4.286649,2.36545 9.07172,3.99663 13.967649,4.02129 4.625094,0.0233 9.171442,-1.38729 13.300364,-3.47152 4.128922,-2.08424 7.884284,-4.82971 11.560949,-7.63581 3.676665,-2.80609 7.306879,-5.69357 11.254115,-8.10424 3.947237,-2.41068 8.2520212,-4.34732 12.8206086,-5.06846 5.6013519,-0.88416 11.377238,0.10147 16.7067694,2.03873 5.329531,1.93726 10.270174,4.79825 15.103,7.76484 4.832827,2.9666 9.604495,6.062 14.712855,8.52402 5.10836,2.46202 10.608497,4.28891 16.273619,4.54045 6.083191,0.2701 12.140243,-1.29047 17.7219,-3.72425 5.581658,-2.43378 10.742519,-5.7245 15.826145,-9.07635 5.083625,-3.35185 10.132811,-6.78873 15.559411,-9.55101 5.4266,-2.76228 11.28293,-4.84819 17.35502,-5.3042 6.90873,-0.51884 13.84493,1.09489 20.2665,3.69551 6.42157,2.60061 12.39835,6.16911 18.33976,9.73273 5.94141,3.56363 11.90468,7.15128 18.30875,9.79468 6.40408,2.64341 13.31862,4.3257 20.23366,3.8991 10.99639,-0.67838 20.92131,-6.53059 30.25329,-12.38677 9.33199,-5.85617 18.95982,-12.02771 29.88127,-13.47778 6.24656,-0.82937 12.64318,-0.0455 18.6813,1.7569 6.03812,1.80236 11.73973,4.60342 17.15771,7.82101 8.03091,4.76933 15.50693,10.4782 23.82312,14.73061 8.31619,4.2524 17.81516,7.01619 26.99699,5.30274 5.3296,-0.99457 10.29025,-3.44923 14.84101,-6.39616 4.55076,-2.94693 8.75025,-6.39731 13.10691,-9.62428 4.35667,-3.22696 8.92147,-6.25819 13.97016,-8.23418 5.04869,-1.97599 10.64729,-2.84989 15.93973,-1.6735 5.03685,1.11957 9.53559,4.03093 13.27418,7.58709 3.73859,3.55617 6.79368,7.75711 9.80548,11.94667 3.0118,4.18956 6.02246,8.41697 9.69039,12.04597 3.66793,3.629 8.0672,6.6654 13.05613,7.98218 4.81729,1.27147 9.97133,0.87539 14.75539,-0.51592 4.78406,-1.39131 9.23686,-3.74175 13.46928,-6.37036 8.46485,-5.25721 16.38375,-11.77619 25.91407,-14.68562 10.87343,-3.31946 22.83335,-1.50337 33.26191,3.02382 6.93985,3.01269 13.31796,7.16063 19.99229,10.7231 6.67433,3.56246 13.83387,6.58788 21.3847,7.05999 7.09895,0.44385 14.17714,-1.40358 20.73955,-4.14709 6.5624,-2.74352 12.70858,-6.37375 18.98897,-9.71273 6.28039,-3.33898 12.78396,-6.4199 19.73216,-7.94124 6.94821,-1.52133 14.43431,-1.38801 20.91932,1.53376 7.20913,3.24802 12.49529,9.53401 17.84585,15.35575 2.67528,2.91087 5.44145,5.76443 8.5942,8.1499 3.15275,2.38547 6.72239,4.30039 10.58632,5.13726 5.51177,1.19377 11.33822,0.11891 16.50291,-2.14618 5.1647,-2.2651 9.74792,-5.66437 14.09573,-9.25621 4.34781,-3.59184 8.51891,-7.41201 13.11477,-10.68046 4.59586,-3.26845 9.68641,-5.99885 15.2175,-7.09967 6.94649,-1.38252 14.22092,-0.10487 20.80707,2.50048 6.58614,2.60535 12.58159,6.48684 18.43532,10.47419 5.85373,3.98734 11.64251,8.12273 17.96562,11.31388 6.32311,3.19115 13.27544,5.42633 20.35737,5.31961 9.34109,-0.14076 18.1673,-4.31591 26.01836,-9.37917 7.85106,-5.06326 15.07794,-11.09639 23.23519,-15.64997 13.78782,-7.6967 30.05253,-10.87142 45.72266,-8.92462 15.67014,1.94679 30.66357,9.00489 42.14889,19.84143 l 2e-5,193.14704 H -495.90476 Z"
       id="path1008"
       inkscape:connector-curvature="0"
       inkscape:path-effect="#path-effect1010"
       inkscape:original-d="m -492.88093,405.85715 c 49.80887,-53.37056 78.08153,-19.92352 117.92854,0 31.16109,15.58052 50.34334,-21.92314 66.07641,-21.92314 19.31874,0 43.81889,13.88983 51.85217,21.92314 11.74459,11.74459 51.89393,-10.82791 60.47619,-15.11906 22.90487,-11.45244 28.17942,13.06036 36.28572,21.16667 14.59642,14.59642 42.97868,-19.33208 57.45238,-12.09524 10.681528,5.34077 40.978933,22.36846 50.849674,27.30384 14.50621,7.2531 30.325892,-42.89018 48.9360366,-24.28003 6.83998,6.83998 56.3523764,16.42417 62.7962434,22.86804 1.022708,1.02269 33.088572,-27.65581 66.462476,-27.65581 19.85404,0 55.43366,27.31509 77.14867,27.12202 125.04833,-1.11182 35.9244,-18.32107 60.13456,-25.86455 36.55581,-11.39018 1.3344,9.57791 35.83901,9.57791 7.92096,0 43.76278,23.56204 50.82011,20.03335 24.18509,-12.09255 23.2088,-43.25264 57.85781,-25.92812 19.40094,9.70047 28.90566,35.29606 45.82618,39.56191 27.87784,7.02831 31.60061,-21.5719 54.13874,-21.5719 10.34844,0 27.7894,-2.44869 33.26191,3.02382 3.44956,3.44956 33.06982,21.93668 41.37699,17.78309 20.56175,-10.28089 51.05784,-49.58943 80.38,-20.2673 8.6419,8.64193 29.12512,20.74166 37.02637,28.64291 6.81082,6.81082 54.91337,-25.16498 58.93091,-29.18252 20.36123,-20.36119 73.23725,33.93632 77.56538,29.60816 70.84814,-70.84814 33.05666,-16.9307 49.25355,-25.02914 32.22974,-16.11488 57.23304,-12.06207 87.87155,10.91681 l 2e-5,193.14704 H -495.90476 Z"
       transform="matrix(0.31825176,0,0,0.32813998,107.6024,96.665613)"
       sodipodi:nodetypes="ccsccsccscsssscssssscsscscccc" />
  </g>
</svg>
